<svg version="1.1" xmlns="http://www.w3.org/2000/svg" xmlns:xlink="http://www.w3.org/1999/xlink" width="683" height="683"><defs/><g><rect fill="rgb(255,255,255)" stroke="none" x="0" y="0" width="683" height="683" transform="matrix(1 0 0 1 0 0)" fill-opacity="1"/><path fill="none" stroke="rgb(83,198,4)" paint-order="fill stroke markers" d=" M 341.4819357946034 183.63333436684954 A 157.86666666666667 157.86666666666667 0 0 1 341.5180642053967 499.36666563315043 L 341.5180642053967 499.36666563315043 A 157.86666666666667 157.86666666666667 0 0 1 341.4819357946033 183.63333436684954" stroke-opacity="1" stroke-miterlimit="10" stroke-width="4" stroke-dasharray=""/><path fill="none" stroke="rgb(118,250,28)" paint-order="fill stroke markers" d=" M 341.4816783339057 181.38333438157977 A 160.11666666666667 160.11666666666667 0 0 1 341.5183216660944 501.61666561842026 L 341.5183216660944 501.61666561842026 A 160.11666666666667 160.11666666666667 0 0 1 341.4816783339056 181.38333438157977" stroke-opacity="1" stroke-miterlimit="10" stroke-width="0.5" stroke-dasharray=""/><path fill="none" stroke="rgb(51,123,2)" paint-order="fill stroke markers" d=" M 341.48219325530107 185.8833343521193 A 155.61666666666667 155.61666666666667 0 0 1 341.517806744699 497.1166656478807 L 341.517806744699 497.1166656478807 A 155.61666666666667 155.61666666666667 0 0 1 341.482193255301 185.8833343521193" stroke-opacity="1" stroke-miterlimit="10" stroke-width="0.5" stroke-dasharray=""/><path fill="none" stroke="rgb(0,0,0)" paint-order="fill stroke markers" d=" M 341.4851130503245 211.40000085173432 A 130.10000000000002 130.10000000000002 0 0 1 341.5148869496755 471.5999991482657 L 341.5148869496755 471.5999991482657 A 130.10000000000002 130.10000000000002 0 0 1 341.48511305032446 211.40000085173432" stroke-opacity="1" stroke-miterlimit="10" stroke-width="0.8" stroke-dasharray=""/><path fill="none" stroke="rgb(38,38,38)" paint-order="fill stroke markers" d=" M 341.48506155818495 210.95000085468035 A 130.55 130.55 0 0 1 341.51493844181505 472.04999914531965 L 341.51493844181505 472.04999914531965 A 130.55 130.55 0 0 1 341.48506155818495 210.95000085468035" stroke-opacity="1" stroke-miterlimit="10" stroke-width="0.1" stroke-dasharray=""/><path fill="none" stroke="rgb(0,0,0)" paint-order="fill stroke markers" d=" M 341.4851645424641 211.85000084878826 A 129.65000000000003 129.65000000000003 0 0 1 341.514835457536 471.1499991512118 L 341.514835457536 471.1499991512118 A 129.65000000000003 129.65000000000003 0 0 1 341.485164542464 211.85000084878826" stroke-opacity="1" stroke-miterlimit="10" stroke-width="0.1" stroke-dasharray=""/><path fill="none" stroke="rgb(0,0,0)" paint-order="fill stroke markers" d=" M 341.4787585388822 155.8666678819648 A 185.63333333333333 185.63333333333333 0 0 1 341.5212414611178 527.1333321180352 L 341.5212414611178 527.1333321180352 A 185.63333333333333 185.63333333333333 0 0 1 341.4787585388822 155.8666678819648" stroke-opacity="1" stroke-miterlimit="10" stroke-width="0.8" stroke-dasharray=""/><path fill="none" stroke="rgb(38,38,38)" paint-order="fill stroke markers" d=" M 341.47870704674267 155.41666788491082 A 186.08333333333331 186.08333333333331 0 0 1 341.5212929532574 527.5833321150892 L 341.5212929532574 527.5833321150892 A 186.08333333333331 186.08333333333331 0 0 1 341.4787070467426 155.41666788491082" stroke-opacity="1" stroke-miterlimit="10" stroke-width="0.1" stroke-dasharray=""/><path fill="none" stroke="rgb(0,0,0)" paint-order="fill stroke markers" d=" M 341.47881003102174 156.31666787901872 A 185.18333333333334 185.18333333333334 0 0 1 341.52118996897826 526.6833321209813 L 341.52118996897826 526.6833321209813 A 185.18333333333334 185.18333333333334 0 0 1 341.4788100310217 156.31666787901872" stroke-opacity="1" stroke-miterlimit="10" stroke-width="0.1" stroke-dasharray=""/><path fill="none" stroke="rgb(0,0,0)" paint-order="fill stroke markers" d=" M 341.47581013711454 130.10000138398644 A 211.4 211.4 0 0 1 341.52418986288546 552.8999986160136 L 341.52418986288546 552.8999986160136 A 211.4 211.4 0 0 1 341.4758101371145 130.10000138398644" stroke-opacity="1" stroke-miterlimit="10" stroke-width="0.8" stroke-dasharray=""/><path fill="none" stroke="rgb(38,38,38)" paint-order="fill stroke markers" d=" M 341.47575864497503 129.6500013869325 A 211.85 211.85 0 0 1 341.524241355025 553.3499986130676 L 341.524241355025 553.3499986130676 A 211.85 211.85 0 0 1 341.475758644975 129.6500013869325" stroke-opacity="1" stroke-miterlimit="10" stroke-width="0.1" stroke-dasharray=""/><path fill="none" stroke="rgb(0,0,0)" paint-order="fill stroke markers" d=" M 341.4758616292541 130.5500013810404 A 210.95000000000002 210.95000000000002 0 0 1 341.52413837074596 552.4499986189596 L 341.52413837074596 552.4499986189596 A 210.95000000000002 210.95000000000002 0 0 1 341.47586162925404 130.5500013810404" stroke-opacity="1" stroke-miterlimit="10" stroke-width="0.1" stroke-dasharray=""/><path fill="none" stroke="rgb(0,0,0)" paint-order="fill stroke markers" d=" M 341.5 214.89999999999998 L 341.5 218.89999999999998" stroke-opacity="1" stroke-linecap="round" stroke-miterlimit="10" stroke-width="2" stroke-dasharray=""/><path fill="none" stroke="rgb(0,0,0)" paint-order="fill stroke markers" d=" M 397.41767532368925 227.91842761083785 L 395.650924128628 231.50710288379716" stroke-opacity="1" stroke-linecap="round" stroke-miterlimit="10" stroke-dasharray=""/><text fill="rgb(0,0,0)" stroke="none" font-family="sans-serif" font-size="10px" font-style="normal" font-weight="normal" text-decoration="undefined" x="368.53790671103604" y="246.89011579323613" text-anchor="start" dominant-baseline="alphabetic" transform="matrix(1 0 0 1 0 0)" fill-opacity="1">2 kbp</text><path fill="none" stroke="rgb(0,0,0)" paint-order="fill stroke markers" d=" M 441.852855119861 264.31927397794055 L 438.6821487969586 266.7578435205017" stroke-opacity="1" stroke-linecap="round" stroke-miterlimit="10" stroke-dasharray=""/><text fill="rgb(0,0,0)" stroke="none" font-family="sans-serif" font-size="10px" font-style="normal" font-weight="normal" text-decoration="undefined" x="409.463198687605" y="280.4156978343434" text-anchor="start" dominant-baseline="alphabetic" transform="matrix(1 0 0 1 0 0)" fill-opacity="1">4 kbp</text><path fill="none" stroke="rgb(0,0,0)" paint-order="fill stroke markers" d=" M 465.628937096382 316.6088976675912 L 461.7070117536843 317.39534639847295" stroke-opacity="1" stroke-linecap="round" stroke-miterlimit="10" stroke-dasharray=""/><text fill="rgb(0,0,0)" stroke="none" font-family="sans-serif" font-size="10px" font-style="normal" font-weight="normal" text-decoration="undefined" x="431.3612331146378" y="323.57501949479564" text-anchor="start" dominant-baseline="alphabetic" transform="matrix(1 0 0 1 0 0)" fill-opacity="1">6 kbp</text><path fill="none" stroke="rgb(0,0,0)" paint-order="fill stroke markers" d=" M 463.85126825375073 374.0227175478732 L 459.9855093831741 372.9951435337224" stroke-opacity="1" stroke-linecap="round" stroke-miterlimit="10" stroke-dasharray=""/><text fill="rgb(0,0,0)" stroke="none" font-family="sans-serif" font-size="10px" font-style="normal" font-weight="normal" text-decoration="undefined" x="429.7239804523091" y="376.45378251249616" text-anchor="start" dominant-baseline="alphabetic" transform="matrix(1 0 0 1 0 0)" fill-opacity="1">8 kbp</text><path fill="none" stroke="rgb(0,0,0)" paint-order="fill stroke markers" d=" M 436.8858076318669 424.7412620184034 L 433.87203803844295 422.11120634641594" stroke-opacity="1" stroke-linecap="round" stroke-miterlimit="10" stroke-dasharray=""/><text fill="rgb(0,0,0)" stroke="none" font-family="sans-serif" font-size="10px" font-style="normal" font-weight="normal" text-decoration="undefined" x="399.3269695858071" y="418.1661228384347" text-anchor="start" dominant-baseline="alphabetic" transform="matrix(1 0 0 1 0 0)" fill-opacity="1">10 kbp</text><path fill="none" stroke="rgb(0,0,0)" paint-order="fill stroke markers" d=" M 390.28378830799636 458.3233795022238 L 388.7424363867326 454.6322774642389" stroke-opacity="1" stroke-linecap="round" stroke-miterlimit="10" stroke-dasharray=""/><text fill="rgb(0,0,0)" stroke="none" font-family="sans-serif" font-size="10px" font-style="normal" font-weight="normal" text-decoration="undefined" x="356.40599444233703" y="449.0956244072614" text-anchor="start" dominant-baseline="alphabetic" transform="matrix(1 0 0 1 0 0)" fill-opacity="1">12 kbp</text><path fill="none" stroke="rgb(0,0,0)" paint-order="fill stroke markers" d=" M 333.63891516133936 467.85570167253786 L 333.8872906696699 463.86342041906113" stroke-opacity="1" stroke-linecap="round" stroke-miterlimit="10" stroke-dasharray=""/><text fill="rgb(0,0,0)" stroke="none" font-family="sans-serif" font-size="10px" font-style="normal" font-weight="normal" text-decoration="undefined" x="319.24764690091564" y="457.87499853884606" text-anchor="start" dominant-baseline="alphabetic" transform="matrix(1 0 0 1 0 0)" fill-opacity="1">14 kbp</text><path fill="none" stroke="rgb(0,0,0)" paint-order="fill stroke markers" d=" M 278.612360900144 451.3758610817056 L 280.5993321197287 447.90426989428994" stroke-opacity="1" stroke-linecap="round" stroke-miterlimit="10" stroke-dasharray=""/><text fill="rgb(0,0,0)" stroke="none" font-family="sans-serif" font-size="10px" font-style="normal" font-weight="normal" text-decoration="undefined" x="283.57978894910576" y="442.69688311316645" text-anchor="start" dominant-baseline="alphabetic" transform="matrix(1 0 0 1 0 0)" fill-opacity="1">16 kbp</text><path fill="none" stroke="rgb(0,0,0)" paint-order="fill stroke markers" d=" M 236.53214370388866 412.2764731008753 L 239.8486636500533 410.04024962217466" stroke-opacity="1" stroke-linecap="round" stroke-miterlimit="10" stroke-dasharray=""/><text fill="rgb(0,0,0)" stroke="none" font-family="sans-serif" font-size="10px" font-style="normal" font-weight="normal" text-decoration="undefined" x="244.82344356930028" y="406.6859144041237" text-anchor="start" dominant-baseline="alphabetic" transform="matrix(1 0 0 1 0 0)" fill-opacity="1">18 kbp</text><path fill="none" stroke="rgb(0,0,0)" paint-order="fill stroke markers" d=" M 216.0610895807746 358.6067166001414 L 220.02440428596339 358.06622002509744" stroke-opacity="1" stroke-linecap="round" stroke-miterlimit="10" stroke-dasharray=""/><text fill="rgb(0,0,0)" stroke="none" font-family="sans-serif" font-size="10px" font-style="normal" font-weight="normal" text-decoration="undefined" x="225.9693763437466" y="362.2554751625315" text-anchor="start" dominant-baseline="alphabetic" transform="matrix(1 0 0 1 0 0)" fill-opacity="1">20 kbp</text><path fill="none" stroke="rgb(0,0,0)" paint-order="fill stroke markers" d=" M 221.41346337753347 301.41529316533536 L 225.20766674633177 302.68179259139106" stroke-opacity="1" stroke-linecap="round" stroke-miterlimit="10" stroke-dasharray=""/><text fill="rgb(0,0,0)" stroke="none" font-family="sans-serif" font-size="10px" font-style="normal" font-weight="normal" text-decoration="undefined" x="230.89897179952925" y="314.5815417304747" text-anchor="start" dominant-baseline="alphabetic" transform="matrix(1 0 0 1 0 0)" fill-opacity="1">22 kbp</text><path fill="none" stroke="rgb(0,0,0)" paint-order="fill stroke markers" d=" M 251.4874009399017 252.4758908472205 L 254.33140091020496 255.2886589089197" stroke-opacity="1" stroke-linecap="round" stroke-miterlimit="10" stroke-dasharray=""/><text fill="rgb(0,0,0)" stroke="none" font-family="sans-serif" font-size="10px" font-style="normal" font-weight="normal" text-decoration="undefined" x="258.5974008656599" y="269.5078110014685" text-anchor="start" dominant-baseline="alphabetic" transform="matrix(1 0 0 1 0 0)" fill-opacity="1">24 kbp</text><path fill="none" stroke="rgb(0,0,0)" paint-order="fill stroke markers" d=" M 300.09174390790076 221.86339888056358 L 301.40006163592915 225.64338627770218" stroke-opacity="1" stroke-linecap="round" stroke-miterlimit="10" stroke-dasharray=""/><text fill="rgb(0,0,0)" stroke="none" font-family="sans-serif" font-size="10px" font-style="normal" font-weight="normal" text-decoration="undefined" x="303.36253822797175" y="241.31336737341007" text-anchor="start" dominant-baseline="alphabetic" transform="matrix(1 0 0 1 0 0)" fill-opacity="1">26 kbp</text><path fill="none" stroke="rgb(0,0,0)" paint-order="fill stroke markers" d=" M 353.0441331763432 215.42742967160996 L 352.86176140420514 217.41909744930962" stroke-opacity="1" stroke-linecap="round" stroke-miterlimit="10" stroke-dasharray=""/><path fill="none" stroke="rgb(0,0,0)" paint-order="fill stroke markers" d=" M 364.5205685653023 217.0105891132494 L 364.1568944963402 218.97724647322966" stroke-opacity="1" stroke-linecap="round" stroke-miterlimit="10" stroke-dasharray=""/><path fill="none" stroke="rgb(0,0,0)" paint-order="fill stroke markers" d=" M 375.8042294608582 219.63622424568985 L 375.2622985057104 221.56140237766948" stroke-opacity="1" stroke-linecap="round" stroke-miterlimit="10" stroke-dasharray=""/><path fill="none" stroke="rgb(0,0,0)" paint-order="fill stroke markers" d=" M 386.80062636303614 223.28234797156307 L 386.0849766574589 225.14992541277059" stroke-opacity="1" stroke-linecap="round" stroke-miterlimit="10" stroke-dasharray=""/><path fill="none" stroke="rgb(0,0,0)" paint-order="fill stroke markers" d=" M 407.56646905848964 233.50564058181726 L 406.52276496593845 235.21171261054053" stroke-opacity="1" stroke-linecap="round" stroke-miterlimit="10" stroke-dasharray=""/><path fill="none" stroke="rgb(0,0,0)" paint-order="fill stroke markers" d=" M 417.1620214575013 239.9971995018629 L 415.9667288594365 241.60071925696775" stroke-opacity="1" stroke-linecap="round" stroke-miterlimit="10" stroke-dasharray=""/><path fill="none" stroke="rgb(0,0,0)" paint-order="fill stroke markers" d=" M 426.12397925979616 247.33874398545015 L 424.7871075495308 248.82628357493752" stroke-opacity="1" stroke-linecap="round" stroke-miterlimit="10" stroke-dasharray=""/><path fill="none" stroke="rgb(0,0,0)" paint-order="fill stroke markers" d=" M 434.3772949325412 255.46879585863178 L 432.9100390884252 256.8278986096803" stroke-opacity="1" stroke-linecap="round" stroke-miterlimit="10" stroke-dasharray=""/><path fill="none" stroke="rgb(0,0,0)" paint-order="fill stroke markers" d=" M 448.48805939883687 273.8160643426303 L 446.79788468479524 274.88532083010847" stroke-opacity="1" stroke-linecap="round" stroke-miterlimit="10" stroke-dasharray=""/><path fill="none" stroke="rgb(0,0,0)" paint-order="fill stroke markers" d=" M 454.22734449613455 283.87964072613033 L 452.4465017710771 284.78991496426414" stroke-opacity="1" stroke-linecap="round" stroke-miterlimit="10" stroke-dasharray=""/><path fill="none" stroke="rgb(0,0,0)" paint-order="fill stroke markers" d=" M 459.0226495754636 294.42573062953835 L 457.1660516358828 295.1693999718837" stroke-opacity="1" stroke-linecap="round" stroke-miterlimit="10" stroke-dasharray=""/><path fill="none" stroke="rgb(0,0,0)" paint-order="fill stroke markers" d=" M 462.8338186995475 305.3660209804492 L 460.9170127169322 305.9368579317849" stroke-opacity="1" stroke-linecap="round" stroke-miterlimit="10" stroke-dasharray=""/><path fill="none" stroke="rgb(0,0,0)" paint-order="fill stroke markers" d=" M 467.3845984138857 328.06021271839757 L 465.39590017669957 328.27253163279886" stroke-opacity="1" stroke-linecap="round" stroke-miterlimit="10" stroke-dasharray=""/><path fill="none" stroke="rgb(0,0,0)" paint-order="fill stroke markers" d=" M 468.0861007249491 339.62407269516035 L 466.086320302754 339.6537081976065" stroke-opacity="1" stroke-linecap="round" stroke-miterlimit="10" stroke-dasharray=""/><path fill="none" stroke="rgb(0,0,0)" paint-order="fill stroke markers" d=" M 467.7275696415329 351.2036417077285 L 465.73345321749605 351.0503456301972" stroke-opacity="1" stroke-linecap="round" stroke-miterlimit="10" stroke-dasharray=""/><path fill="none" stroke="rgb(0,0,0)" paint-order="fill stroke markers" d=" M 466.31200750685804 362.7019523183129 L 464.34025383376394 362.3670083638372" stroke-opacity="1" stroke-linecap="round" stroke-miterlimit="10" stroke-dasharray=""/><path fill="none" stroke="rgb(0,0,0)" paint-order="fill stroke markers" d=" M 460.3659581396788 385.0711371843348 L 458.48813889576604 384.38280958268655" stroke-opacity="1" stroke-linecap="round" stroke-miterlimit="10" stroke-dasharray=""/><path fill="none" stroke="rgb(0,0,0)" paint-order="fill stroke markers" d=" M 455.8852631897263 395.7546916406042 L 454.0782290161129 394.89758750726133" stroke-opacity="1" stroke-linecap="round" stroke-miterlimit="10" stroke-dasharray=""/><path fill="none" stroke="rgb(0,0,0)" paint-order="fill stroke markers" d=" M 450.4467047924992 405.98391671460445 L 448.7255878131548 404.96521344897087" stroke-opacity="1" stroke-linecap="round" stroke-miterlimit="10" stroke-dasharray=""/><path fill="none" stroke="rgb(0,0,0)" paint-order="fill stroke markers" d=" M 444.0958254956064 415.6731527634837 L 442.4750383629744 414.50138099786784" stroke-opacity="1" stroke-linecap="round" stroke-miterlimit="10" stroke-dasharray=""/><path fill="none" stroke="rgb(0,0,0)" paint-order="fill stroke markers" d=" M 428.8770279698721 433.11230803310326 L 427.49666417887886 431.66503618423906" stroke-opacity="1" stroke-linecap="round" stroke-miterlimit="10" stroke-dasharray=""/><path fill="none" stroke="rgb(0,0,0)" paint-order="fill stroke markers" d=" M 420.1365521182641 440.71619157653424 L 418.8942685145 439.14879518511975" stroke-opacity="1" stroke-linecap="round" stroke-miterlimit="10" stroke-dasharray=""/><path fill="none" stroke="rgb(0,0,0)" paint-order="fill stroke markers" d=" M 410.7375729175939 447.4892376445876 L 409.6437723975688 445.8148421051786" stroke-opacity="1" stroke-linecap="round" stroke-miterlimit="10" stroke-dasharray=""/><path fill="none" stroke="rgb(0,0,0)" paint-order="fill stroke markers" d=" M 400.75879752267304 453.37472867527697 L 399.8226395839263 451.60735539446694" stroke-opacity="1" stroke-linecap="round" stroke-miterlimit="10" stroke-dasharray=""/><path fill="none" stroke="rgb(0,0,0)" paint-order="fill stroke markers" d=" M 379.4002631155026 462.29375006918065 L 378.80152278192435 460.3854759764606" stroke-opacity="1" stroke-linecap="round" stroke-miterlimit="10" stroke-dasharray=""/><path fill="none" stroke="rgb(0,0,0)" paint-order="fill stroke markers" d=" M 368.19936070440497 465.2525924495163 L 367.77756985599416 463.2975751912301" stroke-opacity="1" stroke-linecap="round" stroke-miterlimit="10" stroke-dasharray=""/><path fill="none" stroke="rgb(0,0,0)" paint-order="fill stroke markers" d=" M 356.77487755422266 467.1751292647177 L 356.5335682721654 465.1897401768075" stroke-opacity="1" stroke-linecap="round" stroke-miterlimit="10" stroke-dasharray=""/><path fill="none" stroke="rgb(0,0,0)" paint-order="fill stroke markers" d=" M 345.22248241203386 468.04526117042906 L 345.1636754229022 466.04612592287094" stroke-opacity="1" stroke-linecap="round" stroke-miterlimit="10" stroke-dasharray=""/><path fill="none" stroke="rgb(0,0,0)" paint-order="fill stroke markers" d=" M 322.12117672121803 466.60803814435644 L 322.4273192690661 464.6316078419179" stroke-opacity="1" stroke-linecap="round" stroke-miterlimit="10" stroke-dasharray=""/><path fill="none" stroke="rgb(0,0,0)" paint-order="fill stroke markers" d=" M 310.7657167595676 464.3127185339405 L 311.25125046004837 462.3725492048103" stroke-opacity="1" stroke-linecap="round" stroke-miterlimit="10" stroke-dasharray=""/><path fill="none" stroke="rgb(0,0,0)" paint-order="fill stroke markers" d=" M 299.6676260225294 460.98896387285754 L 300.32848501111505 459.1013025162563" stroke-opacity="1" stroke-linecap="round" stroke-miterlimit="10" stroke-dasharray=""/><path fill="none" stroke="rgb(0,0,0)" paint-order="fill stroke markers" d=" M 288.9198400435376 456.664607319058 L 289.75049027981663 454.84526123186913" stroke-opacity="1" stroke-linecap="round" stroke-miterlimit="10" stroke-dasharray=""/><path fill="none" stroke="rgb(0,0,0)" paint-order="fill stroke markers" d=" M 268.8315035356349 445.1670131797408 L 269.9795050595585 443.529303650835" stroke-opacity="1" stroke-linecap="round" stroke-miterlimit="10" stroke-dasharray=""/><path fill="none" stroke="rgb(0,0,0)" paint-order="fill stroke markers" d=" M 259.65917295674996 438.09005657352543 L 260.95207701746483 436.56414730696105" stroke-opacity="1" stroke-linecap="round" stroke-miterlimit="10" stroke-dasharray=""/><path fill="none" stroke="rgb(0,0,0)" paint-order="fill stroke markers" d=" M 251.17217836025839 430.20425377522224 L 252.59915816499364 428.802922751917" stroke-opacity="1" stroke-linecap="round" stroke-miterlimit="10" stroke-dasharray=""/><path fill="none" stroke="rgb(0,0,0)" paint-order="fill stroke markers" d=" M 243.44158993190348 421.5756405838694 L 244.99069593613882 420.3106225651669" stroke-opacity="1" stroke-linecap="round" stroke-miterlimit="10" stroke-dasharray=""/><path fill="none" stroke="rgb(0,0,0)" paint-order="fill stroke markers" d=" M 230.50169945463435 402.3846226566338 L 232.25522710937946 401.4227802765922" stroke-opacity="1" stroke-linecap="round" stroke-miterlimit="10" stroke-dasharray=""/><path fill="none" stroke="rgb(0,0,0)" paint-order="fill stroke markers" d=" M 225.4007561903597 391.9829237151505 L 227.23486746697327 391.185405173047" stroke-opacity="1" stroke-linecap="round" stroke-miterlimit="10" stroke-dasharray=""/><path fill="none" stroke="rgb(0,0,0)" paint-order="fill stroke markers" d=" M 221.27202926585096 381.1584802173332 L 223.17136529640624 380.53196394217787" stroke-opacity="1" stroke-linecap="round" stroke-miterlimit="10" stroke-dasharray=""/><path fill="none" stroke="rgb(0,0,0)" paint-order="fill stroke markers" d=" M 218.15009268561255 370.0019361716364 L 220.09874840937857 369.5516686175821" stroke-opacity="1" stroke-linecap="round" stroke-miterlimit="10" stroke-dasharray=""/><path fill="none" stroke="rgb(0,0,0)" paint-order="fill stroke markers" d=" M 215.02251328622634 347.068245196398 L 217.02057784726543 346.98027923752915" stroke-opacity="1" stroke-linecap="round" stroke-miterlimit="10" stroke-dasharray=""/><path fill="none" stroke="rgb(0,0,0)" paint-order="fill stroke markers" d=" M 215.04306085123795 335.4831452463684 L 217.04080080619468 335.5781982440561" stroke-opacity="1" stroke-linecap="round" stroke-miterlimit="10" stroke-dasharray=""/><path fill="none" stroke="rgb(0,0,0)" paint-order="fill stroke markers" d=" M 216.12256021027497 323.9484305039726 L 218.10324646287728 324.22570648337273" stroke-opacity="1" stroke-linecap="round" stroke-miterlimit="10" stroke-dasharray=""/><path fill="none" stroke="rgb(0,0,0)" paint-order="fill stroke markers" d=" M 218.25197162387664 312.5606927968499 L 220.1990178857427 313.0178698458728" stroke-opacity="1" stroke-linecap="round" stroke-miterlimit="10" stroke-dasharray=""/><path fill="none" stroke="rgb(0,0,0)" paint-order="fill stroke markers" d=" M 225.58056110465975 290.605563308064 L 227.4118318613002 291.4095828450614" stroke-opacity="1" stroke-linecap="round" stroke-miterlimit="10" stroke-dasharray=""/><path fill="none" stroke="rgb(0,0,0)" paint-order="fill stroke markers" d=" M 230.7183694832294 280.22202402130335 L 232.46847423072973 281.19008051385777" stroke-opacity="1" stroke-linecap="round" stroke-miterlimit="10" stroke-dasharray=""/><path fill="none" stroke="rgb(0,0,0)" paint-order="fill stroke markers" d=" M 236.78386444958517 270.35162717681345 L 238.43814779161386 271.47561410924925" stroke-opacity="1" stroke-linecap="round" stroke-miterlimit="10" stroke-dasharray=""/><path fill="none" stroke="rgb(0,0,0)" paint-order="fill stroke markers" d=" M 243.7262534824189 261.0770275859204 L 245.27086243214373 262.3475326793498" stroke-opacity="1" stroke-linecap="round" stroke-miterlimit="10" stroke-dasharray=""/><path fill="none" stroke="rgb(0,0,0)" paint-order="fill stroke markers" d=" M 260.00231488818525 244.62024297400671 L 261.28979806530714 246.15072886699238" stroke-opacity="1" stroke-linecap="round" stroke-miterlimit="10" stroke-dasharray=""/><path fill="none" stroke="rgb(0,0,0)" paint-order="fill stroke markers" d=" M 269.19969134456846 237.57586724764386 L 270.3418763154284 239.21763869712817" stroke-opacity="1" stroke-linecap="round" stroke-miterlimit="10" stroke-dasharray=""/><path fill="none" stroke="rgb(0,0,0)" paint-order="fill stroke markers" d=" M 279.00251137782976 231.40175334764996 L 279.9898334729667 233.14106214152594" stroke-opacity="1" stroke-linecap="round" stroke-miterlimit="10" stroke-dasharray=""/><path fill="none" stroke="rgb(0,0,0)" paint-order="fill stroke markers" d=" M 289.3286860656003 226.14960337147375 L 290.15287743897153 227.97188451884386" stroke-opacity="1" stroke-linecap="round" stroke-miterlimit="10" stroke-dasharray=""/><path fill="none" stroke="rgb(0,0,0)" paint-order="fill stroke markers" d=" M 311.2015549404284 218.5790325982905 L 311.68020336159066 220.52091202011846" stroke-opacity="1" stroke-linecap="round" stroke-miterlimit="10" stroke-dasharray=""/><path fill="none" stroke="rgb(0,0,0)" paint-order="fill stroke markers" d=" M 322.56508548386597 216.32400784388923 L 322.8642152550529 218.30151166942022" stroke-opacity="1" stroke-linecap="round" stroke-miterlimit="10" stroke-dasharray=""/><path fill="none" stroke="rgb(0,0,0)" paint-order="fill stroke markers" d=" M 334.08717720893236 215.1172082193615 L 334.2042834141625 217.1137768098929" stroke-opacity="1" stroke-linecap="round" stroke-miterlimit="10" stroke-dasharray=""/><path fill="none" stroke="rgb(0,0,0)" paint-order="fill stroke markers" d=" M 341.5 126.6 L 341.5 122.6" stroke-opacity="1" stroke-linecap="round" stroke-miterlimit="10" stroke-width="2" stroke-dasharray=""/><path fill="none" stroke="rgb(0,0,0)" paint-order="fill stroke markers" d=" M 436.41870795466684 148.69842096026113 L 438.1854591497281 145.10974568730182" stroke-opacity="1" stroke-linecap="round" stroke-miterlimit="10" stroke-dasharray=""/><path fill="none" stroke="rgb(0,0,0)" paint-order="fill stroke markers" d=" M 511.8461971979314 210.48785132590388 L 515.0169035208338 208.04928178334276" stroke-opacity="1" stroke-linecap="round" stroke-miterlimit="10" stroke-dasharray=""/><path fill="none" stroke="rgb(0,0,0)" paint-order="fill stroke markers" d=" M 552.2054390364335 299.24804193337553 L 556.1273643791312 298.46159320249376" stroke-opacity="1" stroke-linecap="round" stroke-miterlimit="10" stroke-dasharray=""/><path fill="none" stroke="rgb(0,0,0)" paint-order="fill stroke markers" d=" M 549.18789532173 396.70641391025237 L 553.0536541923067 397.7339879244032" stroke-opacity="1" stroke-linecap="round" stroke-miterlimit="10" stroke-dasharray=""/><path fill="none" stroke="rgb(0,0,0)" paint-order="fill stroke markers" d=" M 503.41477140669974 482.79974097752677 L 506.4285410001237 485.4297966495143" stroke-opacity="1" stroke-linecap="round" stroke-miterlimit="10" stroke-dasharray=""/><path fill="none" stroke="rgb(0,0,0)" paint-order="fill stroke markers" d=" M 424.30913196989263 539.8044569907416 L 425.8504838911564 543.4955590287266" stroke-opacity="1" stroke-linecap="round" stroke-miterlimit="10" stroke-dasharray=""/><path fill="none" stroke="rgb(0,0,0)" paint-order="fill stroke markers" d=" M 328.15602581494335 555.9853103430362 L 327.9076503066128 559.9775915965129" stroke-opacity="1" stroke-linecap="round" stroke-miterlimit="10" stroke-dasharray=""/><path fill="none" stroke="rgb(0,0,0)" paint-order="fill stroke markers" d=" M 234.74997122781153 528.0112365439062 L 232.7630000082268 531.4828277313219" stroke-opacity="1" stroke-linecap="round" stroke-miterlimit="10" stroke-dasharray=""/><path fill="none" stroke="rgb(0,0,0)" paint-order="fill stroke markers" d=" M 163.3199658923039 461.64110639319193 L 160.00344594613924 463.8773298718926" stroke-opacity="1" stroke-linecap="round" stroke-miterlimit="10" stroke-dasharray=""/><path fill="none" stroke="rgb(0,0,0)" paint-order="fill stroke markers" d=" M 128.57091746373197 370.5381784942369 L 124.60760275854318 371.07867506928085" stroke-opacity="1" stroke-linecap="round" stroke-miterlimit="10" stroke-dasharray=""/><path fill="none" stroke="rgb(0,0,0)" paint-order="fill stroke markers" d=" M 137.6564240113108 273.4573183351545 L 133.8622206425125 272.19081890909877" stroke-opacity="1" stroke-linecap="round" stroke-miterlimit="10" stroke-dasharray=""/><path fill="none" stroke="rgb(0,0,0)" paint-order="fill stroke markers" d=" M 188.70610159545717 190.38403588521084 L 185.8621016251539 187.57126782351165" stroke-opacity="1" stroke-linecap="round" stroke-miterlimit="10" stroke-dasharray=""/><path fill="none" stroke="rgb(0,0,0)" paint-order="fill stroke markers" d=" M 271.21063006167356 138.42017708872925 L 269.9023123336451 134.64018969159065" stroke-opacity="1" stroke-linecap="round" stroke-miterlimit="10" stroke-dasharray=""/><path fill="none" stroke="rgb(0,0,0)" paint-order="fill stroke markers" d=" M 361.09584691624144 127.49529728616889 L 361.2782186883795 125.5036295084692" stroke-opacity="1" stroke-linecap="round" stroke-miterlimit="10" stroke-dasharray=""/><path fill="none" stroke="rgb(0,0,0)" paint-order="fill stroke markers" d=" M 380.57677870998 130.18266667012085 L 380.9404527789421 128.21600931014058" stroke-opacity="1" stroke-linecap="round" stroke-miterlimit="10" stroke-dasharray=""/><path fill="none" stroke="rgb(0,0,0)" paint-order="fill stroke markers" d=" M 399.7304811306353 134.6396097187895 L 400.2724120857832 132.71443158680987" stroke-opacity="1" stroke-linecap="round" stroke-miterlimit="10" stroke-dasharray=""/><path fill="none" stroke="rgb(0,0,0)" paint-order="fill stroke markers" d=" M 418.3965608642691 140.82880394225043 L 419.11221056984624 138.9612265010429" stroke-opacity="1" stroke-linecap="round" stroke-miterlimit="10" stroke-dasharray=""/><path fill="none" stroke="rgb(0,0,0)" paint-order="fill stroke markers" d=" M 453.6460047446242 158.18256051368508 L 454.6897088371754 156.4764884849618" stroke-opacity="1" stroke-linecap="round" stroke-miterlimit="10" stroke-dasharray=""/><path fill="none" stroke="rgb(0,0,0)" paint-order="fill stroke markers" d=" M 469.93418966206184 169.20180231398376 L 471.1294822601266 167.5982825588789" stroke-opacity="1" stroke-linecap="round" stroke-miterlimit="10" stroke-dasharray=""/><path fill="none" stroke="rgb(0,0,0)" paint-order="fill stroke markers" d=" M 485.14686526801097 181.66387110958328 L 486.4837369782763 180.1763315200959" stroke-opacity="1" stroke-linecap="round" stroke-miterlimit="10" stroke-dasharray=""/><path fill="none" stroke="rgb(0,0,0)" paint-order="fill stroke markers" d=" M 499.1566404502614 195.46440939984183 L 500.62389629437735 194.10530664879337" stroke-opacity="1" stroke-linecap="round" stroke-miterlimit="10" stroke-dasharray=""/><path fill="none" stroke="rgb(0,0,0)" paint-order="fill stroke markers" d=" M 523.109273023776 226.60839042046803 L 524.7994477378177 225.53913393298984" stroke-opacity="1" stroke-linecap="round" stroke-miterlimit="10" stroke-dasharray=""/><path fill="none" stroke="rgb(0,0,0)" paint-order="fill stroke markers" d=" M 532.8515508074195 243.69103311252303 L 534.632393532477 242.78075887438922" stroke-opacity="1" stroke-linecap="round" stroke-miterlimit="10" stroke-dasharray=""/><path fill="none" stroke="rgb(0,0,0)" paint-order="fill stroke markers" d=" M 540.9914486079552 261.5927291649905 L 542.848046547536 260.8490598226451" stroke-opacity="1" stroke-linecap="round" stroke-miterlimit="10" stroke-dasharray=""/><path fill="none" stroke="rgb(0,0,0)" paint-order="fill stroke markers" d=" M 547.4608028320123 280.16356957897733 L 549.3776088146276 279.5927326276416" stroke-opacity="1" stroke-linecap="round" stroke-miterlimit="10" stroke-dasharray=""/><path fill="none" stroke="rgb(0,0,0)" paint-order="fill stroke markers" d=" M 555.1856255856559 318.68633264758006 L 557.1743238228421 318.47401373317877" stroke-opacity="1" stroke-linecap="round" stroke-miterlimit="10" stroke-dasharray=""/><path fill="none" stroke="rgb(0,0,0)" paint-order="fill stroke markers" d=" M 556.3764063648623 338.315665262164 L 558.3761867870573 338.28602975971785" stroke-opacity="1" stroke-linecap="round" stroke-miterlimit="10" stroke-dasharray=""/><path fill="none" stroke="rgb(0,0,0)" paint-order="fill stroke markers" d=" M 555.76780976276 357.97166353073345 L 557.7619261867968 358.1249596082647" stroke-opacity="1" stroke-linecap="round" stroke-miterlimit="10" stroke-dasharray=""/><path fill="none" stroke="rgb(0,0,0)" paint-order="fill stroke markers" d=" M 553.3649321739636 377.48972790841583 L 555.3366858470577 377.82467186289153" stroke-opacity="1" stroke-linecap="round" stroke-miterlimit="10" stroke-dasharray=""/><path fill="none" stroke="rgb(0,0,0)" paint-order="fill stroke markers" d=" M 543.2716777584279 415.4608007971055 L 545.1494970023407 416.14912839875376" stroke-opacity="1" stroke-linecap="round" stroke-miterlimit="10" stroke-dasharray=""/><path fill="none" stroke="rgb(0,0,0)" paint-order="fill stroke markers" d=" M 535.6658219547566 433.59583912769233 L 537.4728561283699 434.45294326103516" stroke-opacity="1" stroke-linecap="round" stroke-miterlimit="10" stroke-dasharray=""/><path fill="none" stroke="rgb(0,0,0)" paint-order="fill stroke markers" d=" M 526.4340194305535 450.95966589232614 L 528.1551364098979 451.97836915795966" stroke-opacity="1" stroke-linecap="round" stroke-miterlimit="10" stroke-dasharray=""/><path fill="none" stroke="rgb(0,0,0)" paint-order="fill stroke markers" d=" M 515.6535774013097 467.4068762154237 L 517.2743645339417 468.5786479810396" stroke-opacity="1" stroke-linecap="round" stroke-miterlimit="10" stroke-dasharray=""/><path fill="none" stroke="rgb(0,0,0)" paint-order="fill stroke markers" d=" M 489.8200893422236 497.0093601604573 L 491.2004531332168 498.4566320093214" stroke-opacity="1" stroke-linecap="round" stroke-miterlimit="10" stroke-dasharray=""/><path fill="none" stroke="rgb(0,0,0)" paint-order="fill stroke markers" d=" M 474.9833732244467 509.9167422574818 L 476.22565682821073 511.4841386488963" stroke-opacity="1" stroke-linecap="round" stroke-miterlimit="10" stroke-dasharray=""/><path fill="none" stroke="rgb(0,0,0)" paint-order="fill stroke markers" d=" M 459.02886587670565 521.4138007094934 L 460.12266639673084 523.0881962489025" stroke-opacity="1" stroke-linecap="round" stroke-miterlimit="10" stroke-dasharray=""/><path fill="none" stroke="rgb(0,0,0)" paint-order="fill stroke markers" d=" M 442.0901705183447 531.4042590230413 L 443.0263284570915 533.1716323038513" stroke-opacity="1" stroke-linecap="round" stroke-miterlimit="10" stroke-dasharray=""/><path fill="none" stroke="rgb(0,0,0)" paint-order="fill stroke markers" d=" M 405.83464884298184 546.5440512627719 L 406.43338917656007 548.4523253554919" stroke-opacity="1" stroke-linecap="round" stroke-miterlimit="10" stroke-dasharray=""/><path fill="none" stroke="rgb(0,0,0)" paint-order="fill stroke markers" d=" M 386.8214266617427 551.5666044028519 L 387.2432175101535 553.5216216611382" stroke-opacity="1" stroke-linecap="round" stroke-miterlimit="10" stroke-dasharray=""/><path fill="none" stroke="rgb(0,0,0)" paint-order="fill stroke markers" d=" M 367.4286823570493 554.8300574959544 L 367.66999163910657 556.8154465838647" stroke-opacity="1" stroke-linecap="round" stroke-miterlimit="10" stroke-dasharray=""/><path fill="none" stroke="rgb(0,0,0)" paint-order="fill stroke markers" d=" M 347.8188109821965 556.30708235012 L 347.87761797132816 558.3062175976781" stroke-opacity="1" stroke-linecap="round" stroke-miterlimit="10" stroke-dasharray=""/><path fill="none" stroke="rgb(0,0,0)" paint-order="fill stroke markers" d=" M 308.6049832337264 553.8674359970157 L 308.2988406858783 555.8438662994542" stroke-opacity="1" stroke-linecap="round" stroke-miterlimit="10" stroke-dasharray=""/><path fill="none" stroke="rgb(0,0,0)" paint-order="fill stroke markers" d=" M 289.3294038833419 549.9711944150379 L 288.8438701828611 551.911363744168" stroke-opacity="1" stroke-linecap="round" stroke-miterlimit="10" stroke-dasharray=""/><path fill="none" stroke="rgb(0,0,0)" paint-order="fill stroke markers" d=" M 270.49070167647375 544.3292127668016 L 269.8298426878881 546.2168741234028" stroke-opacity="1" stroke-linecap="round" stroke-miterlimit="10" stroke-dasharray=""/><path fill="none" stroke="rgb(0,0,0)" paint-order="fill stroke markers" d=" M 252.24663211181854 536.9887370684484 L 251.4159818755395 538.8080831556373" stroke-opacity="1" stroke-linecap="round" stroke-miterlimit="10" stroke-dasharray=""/><path fill="none" stroke="rgb(0,0,0)" paint-order="fill stroke markers" d=" M 218.14723625440712 517.4718888809344 L 216.9992347304835 519.1095984098404" stroke-opacity="1" stroke-linecap="round" stroke-miterlimit="10" stroke-dasharray=""/><path fill="none" stroke="rgb(0,0,0)" paint-order="fill stroke markers" d=" M 202.57745867618937 505.4589506923429 L 201.2845546154745 506.98485995890724" stroke-opacity="1" stroke-linecap="round" stroke-miterlimit="10" stroke-dasharray=""/><path fill="none" stroke="rgb(0,0,0)" paint-order="fill stroke markers" d=" M 188.1710199811969 492.07301845414895 L 186.74404017646165 493.4743494774542" stroke-opacity="1" stroke-linecap="round" stroke-miterlimit="10" stroke-dasharray=""/><path fill="none" stroke="rgb(0,0,0)" paint-order="fill stroke markers" d=" M 175.0485598449136 477.42618610958556 L 173.49945384067826 478.69120412828806" stroke-opacity="1" stroke-linecap="round" stroke-miterlimit="10" stroke-dasharray=""/><path fill="none" stroke="rgb(0,0,0)" paint-order="fill stroke markers" d=" M 153.08345349763763 444.8499637354708 L 151.32992584289252 445.8118061155124" stroke-opacity="1" stroke-linecap="round" stroke-miterlimit="10" stroke-dasharray=""/><path fill="none" stroke="rgb(0,0,0)" paint-order="fill stroke markers" d=" M 144.42474332786966 427.19336734901924 L 142.59063205125608 427.99088589112273" stroke-opacity="1" stroke-linecap="round" stroke-miterlimit="10" stroke-dasharray=""/><path fill="none" stroke="rgb(0,0,0)" paint-order="fill stroke markers" d=" M 137.41634351683552 408.8191737654415 L 135.51700748628025 409.4456900405969" stroke-opacity="1" stroke-linecap="round" stroke-miterlimit="10" stroke-dasharray=""/><path fill="none" stroke="rgb(0,0,0)" paint-order="fill stroke markers" d=" M 132.11694248134395 389.88124868313315 L 130.16828675757796 390.33151623718743" stroke-opacity="1" stroke-linecap="round" stroke-miterlimit="10" stroke-dasharray=""/><path fill="none" stroke="rgb(0,0,0)" paint-order="fill stroke markers" d=" M 126.80796291635104 350.9519422804576 L 124.80989835531196 351.03990823932645" stroke-opacity="1" stroke-linecap="round" stroke-miterlimit="10" stroke-dasharray=""/><path fill="none" stroke="rgb(0,0,0)" paint-order="fill stroke markers" d=" M 126.84284183989763 331.28655539845636 L 124.84510188494087 331.1915024007686" stroke-opacity="1" stroke-linecap="round" stroke-miterlimit="10" stroke-dasharray=""/><path fill="none" stroke="rgb(0,0,0)" paint-order="fill stroke markers" d=" M 128.67526215788385 311.7066960134575 L 126.69457590528157 311.42942003405733" stroke-opacity="1" stroke-linecap="round" stroke-miterlimit="10" stroke-dasharray=""/><path fill="none" stroke="rgb(0,0,0)" paint-order="fill stroke markers" d=" M 132.2898791624889 292.37632608248845 L 130.3428329006228 291.91914903346554" stroke-opacity="1" stroke-linecap="round" stroke-miterlimit="10" stroke-dasharray=""/><path fill="none" stroke="rgb(0,0,0)" paint-order="fill stroke markers" d=" M 144.72995719898407 255.10810074962836 L 142.89868644234363 254.30408121263093" stroke-opacity="1" stroke-linecap="round" stroke-miterlimit="10" stroke-dasharray=""/><path fill="none" stroke="rgb(0,0,0)" paint-order="fill stroke markers" d=" M 153.45124488109005 237.4823298750244 L 151.70114013358972 236.51427338246995" stroke-opacity="1" stroke-linecap="round" stroke-miterlimit="10" stroke-dasharray=""/><path fill="none" stroke="rgb(0,0,0)" paint-order="fill stroke markers" d=" M 163.7472548990194 220.72760410977259 L 162.09297155699073 219.6036171773368" stroke-opacity="1" stroke-linecap="round" stroke-miterlimit="10" stroke-dasharray=""/><path fill="none" stroke="rgb(0,0,0)" paint-order="fill stroke markers" d=" M 175.53176835206816 204.98422771101343 L 173.98715940234334 203.71372261758404" stroke-opacity="1" stroke-linecap="round" stroke-miterlimit="10" stroke-dasharray=""/><path fill="none" stroke="rgb(0,0,0)" paint-order="fill stroke markers" d=" M 203.15993261825446 177.04929079868916 L 201.87244944113257 175.5188049057035" stroke-opacity="1" stroke-linecap="round" stroke-miterlimit="10" stroke-dasharray=""/><path fill="none" stroke="rgb(0,0,0)" paint-order="fill stroke markers" d=" M 218.77222488110402 165.09165775291206 L 217.63003991024414 163.44988630342777" stroke-opacity="1" stroke-linecap="round" stroke-miterlimit="10" stroke-dasharray=""/><path fill="none" stroke="rgb(0,0,0)" paint-order="fill stroke markers" d=" M 235.4122408775325 154.61127009802513 L 234.42491878239554 152.87196130414912" stroke-opacity="1" stroke-linecap="round" stroke-miterlimit="10" stroke-dasharray=""/><path fill="none" stroke="rgb(0,0,0)" paint-order="fill stroke markers" d=" M 252.94063693125992 145.69589071508463 L 252.11644555788868 143.87360956771457" stroke-opacity="1" stroke-linecap="round" stroke-miterlimit="10" stroke-dasharray=""/><path fill="none" stroke="rgb(0,0,0)" paint-order="fill stroke markers" d=" M 290.06922714611426 132.84505612458636 L 289.590578724952 130.9031767027584" stroke-opacity="1" stroke-linecap="round" stroke-miterlimit="10" stroke-dasharray=""/><path fill="none" stroke="rgb(0,0,0)" paint-order="fill stroke markers" d=" M 309.35850608596206 129.0172139466967 L 309.0593763147751 127.03971012116571" stroke-opacity="1" stroke-linecap="round" stroke-miterlimit="10" stroke-dasharray=""/><path fill="none" stroke="rgb(0,0,0)" paint-order="fill stroke markers" d=" M 328.9169382480218 126.96870494739957 L 328.79983204279165 124.97213635686816" stroke-opacity="1" stroke-linecap="round" stroke-miterlimit="10" stroke-dasharray=""/><path fill="none" stroke="rgb(229,156,4)" paint-order="fill stroke markers" d=" M 404.0186691613914 554.4108405090931 L 411.062232609047 578.3980915804195" stroke-opacity="1" stroke-linecap="round" stroke-miterlimit="10" stroke-dasharray=""/><path fill="none" stroke="rgb(229,156,4)" paint-order="fill stroke markers" d=" M 406.2565359543461 129.2590966585529 L 413.55222499832377 105.34732296077831" stroke-opacity="1" stroke-linecap="round" stroke-miterlimit="10" stroke-dasharray=""/><path fill="none" stroke="rgb(229,156,4)" paint-order="fill stroke markers" d=" M 239.25231900018156 538.439132043785 L 227.73275151484825 560.6269567445269" stroke-opacity="1" stroke-linecap="round" stroke-miterlimit="10" stroke-dasharray=""/><path fill="none" stroke="rgb(229,156,4)" paint-order="fill stroke markers" d=" M 533.8654081944393 230.88734371607043 L 555.5379417900273 218.4253499932302" stroke-opacity="1" stroke-linecap="round" stroke-miterlimit="10" stroke-dasharray=""/><path fill="none" stroke="rgb(229,156,4)" paint-order="fill stroke markers" d=" M 132.23654456246737 415.31338779885255 L 108.66022015535464 423.6294522196336" stroke-opacity="1" stroke-linecap="round" stroke-miterlimit="10" stroke-dasharray=""/><path fill="none" stroke="rgb(229,156,4)" paint-order="fill stroke markers" d=" M 463.1333818441746 155.90654531705806 L 476.8370075589306 134.99696277053465" stroke-opacity="1" stroke-linecap="round" stroke-miterlimit="10" stroke-dasharray=""/><path fill="none" stroke="rgb(229,156,4)" paint-order="fill stroke markers" d=" M 257.2838652066469 136.20203936602834 L 247.79579233673329 113.07248093498151" stroke-opacity="1" stroke-linecap="round" stroke-miterlimit="10" stroke-dasharray=""/><path fill="none" stroke="rgb(229,156,4)" paint-order="fill stroke markers" d=" M 501.69754615331385 187.95405831980818 L 519.7459402670265 170.65505632789834" stroke-opacity="1" stroke-linecap="round" stroke-miterlimit="10" stroke-dasharray=""/><path fill="none" stroke="rgb(229,156,4)" paint-order="fill stroke markers" d=" M 156.0667645716371 463.3775007889862 L 135.1752328649716 477.108629764762" stroke-opacity="1" stroke-linecap="round" stroke-miterlimit="10" stroke-dasharray=""/><path fill="none" stroke="rgb(229,156,4)" paint-order="fill stroke markers" d=" M 540.766454111629 439.1344727326271 L 563.2164827406993 450.13430066555037" stroke-opacity="1" stroke-linecap="round" stroke-miterlimit="10" stroke-dasharray=""/><path fill="none" stroke="rgb(229,156,4)" paint-order="fill stroke markers" d=" M 163.2940129487442 209.27959242579968 L 143.2167273413472 194.3831968000448" stroke-opacity="1" stroke-linecap="round" stroke-miterlimit="10" stroke-dasharray=""/><path fill="none" stroke="rgb(229,156,4)" paint-order="fill stroke markers" d=" M 563.242295696445 349.86446646656896 L 588.2245281994244 350.80683537898096" stroke-opacity="1" stroke-linecap="round" stroke-miterlimit="10" stroke-dasharray=""/><path fill="none" stroke="rgb(229,156,4)" paint-order="fill stroke markers" d=" M 124.96985729979997 292.97879533409116 L 100.57484347598293 287.51223329421856" stroke-opacity="1" stroke-linecap="round" stroke-miterlimit="10" stroke-dasharray=""/><path fill="none" stroke="rgb(229,156,4)" paint-order="fill stroke markers" d=" M 351.42470445594705 563.1779426137434 L 352.54285502556706 588.1529248820787" stroke-opacity="1" stroke-linecap="round" stroke-miterlimit="10" stroke-dasharray=""/><path fill="none" stroke="rgb(229,156,4)" paint-order="fill stroke markers" d=" M 554.1115573975603 277.97098567596134 L 578.0650902273892 270.813593345628" stroke-opacity="1" stroke-linecap="round" stroke-miterlimit="10" stroke-dasharray=""/><path fill="none" stroke="rgb(229,156,4)" paint-order="fill stroke markers" d=" M 120.88375620988285 365.33449130859725 L 96.0283885003158 368.0197652279976" stroke-opacity="1" stroke-linecap="round" stroke-miterlimit="10" stroke-dasharray=""/><path fill="none" stroke="rgb(229,156,4)" paint-order="fill stroke markers" d=" M 487.6986379740779 508.4298303315634 L 504.16986802974236 527.2367062138936" stroke-opacity="1" stroke-linecap="round" stroke-miterlimit="10" stroke-dasharray=""/><path fill="none" stroke="rgb(229,156,4)" paint-order="fill stroke markers" d=" M 228.07088756448928 150.78176161653477 L 215.29158242303922 129.29480370942963" stroke-opacity="1" stroke-linecap="round" stroke-miterlimit="10" stroke-dasharray=""/><path fill="none" stroke="rgb(229,156,4)" paint-order="fill stroke markers" d=" M 561.1466310061217 373.04310523174047 L 585.892758879727 376.59685751111635" stroke-opacity="1" stroke-linecap="round" stroke-miterlimit="10" stroke-dasharray=""/><path fill="none" stroke="rgb(229,156,4)" paint-order="fill stroke markers" d=" M 131.24275494848766 270.56692659028306 L 107.55446686246782 262.57536807183817" stroke-opacity="1" stroke-linecap="round" stroke-miterlimit="10" stroke-dasharray=""/><rect fill="rgb(255,255,255)" stroke="none" x="411.062232609047" y="578.3980915804195" width="28.8984375" height="12" transform="matrix(1 0 0 1 0 0)" fill-opacity="0.75"/><text fill="rgb(229,156,4)" stroke="none" font-family="monospace" font-size="12px" font-style="normal" font-weight="normal" text-decoration="undefined" x="411.062232609047" y="589.3980915804195" text-anchor="start" dominant-baseline="alphabetic" transform="matrix(1 0 0 1 0 0)" fill-opacity="1">nad5</text><rect fill="rgb(255,255,255)" stroke="none" x="413.55222499832377" y="93.34732296077831" width="43.34765625" height="12" transform="matrix(1 0 0 1 0 0)" fill-opacity="0.75"/><text fill="rgb(229,156,4)" stroke="none" font-family="monospace" font-size="12px" font-style="normal" font-weight="normal" text-decoration="undefined" x="413.55222499832377" y="104.34732296077831" text-anchor="start" dominant-baseline="alphabetic" transform="matrix(1 0 0 1 0 0)" fill-opacity="1">cox1_0</text><rect fill="rgb(255,255,255)" stroke="none" x="184.38509526484825" y="560.6269567445269" width="43.34765625" height="12" transform="matrix(1 0 0 1 0 0)" fill-opacity="0.75"/><text fill="rgb(229,156,4)" stroke="none" font-family="monospace" font-size="12px" font-style="normal" font-weight="normal" text-decoration="undefined" x="184.38509526484825" y="571.6269567445269" text-anchor="start" dominant-baseline="alphabetic" transform="matrix(1 0 0 1 0 0)" fill-opacity="1">cox1_1</text><rect fill="rgb(255,255,255)" stroke="none" x="555.5379417900273" y="206.4253499932302" width="43.34765625" height="12" transform="matrix(1 0 0 1 0 0)" fill-opacity="0.75"/><text fill="rgb(229,156,4)" stroke="none" font-family="monospace" font-size="12px" font-style="normal" font-weight="normal" text-decoration="undefined" x="555.5379417900273" y="217.4253499932302" text-anchor="start" dominant-baseline="alphabetic" transform="matrix(1 0 0 1 0 0)" fill-opacity="1">nad4_0</text><rect fill="rgb(255,255,255)" stroke="none" x="65.31256390535464" y="423.6294522196336" width="43.34765625" height="12" transform="matrix(1 0 0 1 0 0)" fill-opacity="0.75"/><text fill="rgb(229,156,4)" stroke="none" font-family="monospace" font-size="12px" font-style="normal" font-weight="normal" text-decoration="undefined" x="65.31256390535464" y="434.6294522196336" text-anchor="start" dominant-baseline="alphabetic" transform="matrix(1 0 0 1 0 0)" fill-opacity="1">nad4_1</text><rect fill="rgb(255,255,255)" stroke="none" x="476.8370075589306" y="122.99696277053465" width="28.8984375" height="12" transform="matrix(1 0 0 1 0 0)" fill-opacity="0.75"/><text fill="rgb(229,156,4)" stroke="none" font-family="monospace" font-size="12px" font-style="normal" font-weight="normal" text-decoration="undefined" x="476.8370075589306" y="133.99696277053465" text-anchor="start" dominant-baseline="alphabetic" transform="matrix(1 0 0 1 0 0)" fill-opacity="1">nad2</text><rect fill="rgb(255,255,255)" stroke="none" x="218.89735483673329" y="101.07248093498151" width="28.8984375" height="12" transform="matrix(1 0 0 1 0 0)" fill-opacity="0.75"/><text fill="rgb(229,156,4)" stroke="none" font-family="monospace" font-size="12px" font-style="normal" font-weight="normal" text-decoration="undefined" x="218.89735483673329" y="112.07248093498151" text-anchor="start" dominant-baseline="alphabetic" transform="matrix(1 0 0 1 0 0)" fill-opacity="1">nad1</text><rect fill="rgb(255,255,255)" stroke="none" x="519.7459402670265" y="158.65505632789834" width="43.34765625" height="12" transform="matrix(1 0 0 1 0 0)" fill-opacity="0.75"/><text fill="rgb(229,156,4)" stroke="none" font-family="monospace" font-size="12px" font-style="normal" font-weight="normal" text-decoration="undefined" x="519.7459402670265" y="169.65505632789834" text-anchor="start" dominant-baseline="alphabetic" transform="matrix(1 0 0 1 0 0)" fill-opacity="1">cox3_0</text><rect fill="rgb(255,255,255)" stroke="none" x="91.8275766149716" y="477.108629764762" width="43.34765625" height="12" transform="matrix(1 0 0 1 0 0)" fill-opacity="0.75"/><text fill="rgb(229,156,4)" stroke="none" font-family="monospace" font-size="12px" font-style="normal" font-weight="normal" text-decoration="undefined" x="91.8275766149716" y="488.108629764762" text-anchor="start" dominant-baseline="alphabetic" transform="matrix(1 0 0 1 0 0)" fill-opacity="1">cox3_1</text><rect fill="rgb(255,255,255)" stroke="none" x="563.2164827406993" y="450.13430066555037" width="43.34765625" height="12" transform="matrix(1 0 0 1 0 0)" fill-opacity="0.75"/><text fill="rgb(229,156,4)" stroke="none" font-family="monospace" font-size="12px" font-style="normal" font-weight="normal" text-decoration="undefined" x="563.2164827406993" y="461.13430066555037" text-anchor="start" dominant-baseline="alphabetic" transform="matrix(1 0 0 1 0 0)" fill-opacity="1">cox2_1</text><rect fill="rgb(255,255,255)" stroke="none" x="99.8690710913472" y="182.3831968000448" width="43.34765625" height="12" transform="matrix(1 0 0 1 0 0)" fill-opacity="0.75"/><text fill="rgb(229,156,4)" stroke="none" font-family="monospace" font-size="12px" font-style="normal" font-weight="normal" text-decoration="undefined" x="99.8690710913472" y="193.3831968000448" text-anchor="start" dominant-baseline="alphabetic" transform="matrix(1 0 0 1 0 0)" fill-opacity="1">cox2_0</text><rect fill="rgb(255,255,255)" stroke="none" x="588.2245281994244" y="344.80683537898096" width="43.34765625" height="12" transform="matrix(1 0 0 1 0 0)" fill-opacity="0.75"/><text fill="rgb(229,156,4)" stroke="none" font-family="monospace" font-size="12px" font-style="normal" font-weight="normal" text-decoration="undefined" x="588.2245281994244" y="355.80683537898096" text-anchor="start" dominant-baseline="alphabetic" transform="matrix(1 0 0 1 0 0)" fill-opacity="1">atp6_0</text><rect fill="rgb(255,255,255)" stroke="none" x="57.22718722598293" y="281.51223329421856" width="43.34765625" height="12" transform="matrix(1 0 0 1 0 0)" fill-opacity="0.75"/><text fill="rgb(229,156,4)" stroke="none" font-family="monospace" font-size="12px" font-style="normal" font-weight="normal" text-decoration="undefined" x="57.22718722598293" y="292.51223329421856" text-anchor="start" dominant-baseline="alphabetic" transform="matrix(1 0 0 1 0 0)" fill-opacity="1">atp6_1</text><rect fill="rgb(255,255,255)" stroke="none" x="338.09363627556706" y="588.1529248820787" width="28.8984375" height="12" transform="matrix(1 0 0 1 0 0)" fill-opacity="0.75"/><text fill="rgb(229,156,4)" stroke="none" font-family="monospace" font-size="12px" font-style="normal" font-weight="normal" text-decoration="undefined" x="338.09363627556706" y="599.1529248820787" text-anchor="start" dominant-baseline="alphabetic" transform="matrix(1 0 0 1 0 0)" fill-opacity="1">nad6</text><rect fill="rgb(255,255,255)" stroke="none" x="578.0650902273892" y="258.813593345628" width="43.34765625" height="12" transform="matrix(1 0 0 1 0 0)" fill-opacity="0.75"/><text fill="rgb(229,156,4)" stroke="none" font-family="monospace" font-size="12px" font-style="normal" font-weight="normal" text-decoration="undefined" x="578.0650902273892" y="269.813593345628" text-anchor="start" dominant-baseline="alphabetic" transform="matrix(1 0 0 1 0 0)" fill-opacity="1">nad3_0</text><rect fill="rgb(255,255,255)" stroke="none" x="52.6807322503158" y="362.0197652279976" width="43.34765625" height="12" transform="matrix(1 0 0 1 0 0)" fill-opacity="0.75"/><text fill="rgb(229,156,4)" stroke="none" font-family="monospace" font-size="12px" font-style="normal" font-weight="normal" text-decoration="undefined" x="52.6807322503158" y="373.0197652279976" text-anchor="start" dominant-baseline="alphabetic" transform="matrix(1 0 0 1 0 0)" fill-opacity="1">nad3_1</text><rect fill="rgb(255,255,255)" stroke="none" x="504.16986802974236" y="527.2367062138936" width="50.572265625" height="12" transform="matrix(1 0 0 1 0 0)" fill-opacity="0.75"/><text fill="rgb(229,156,4)" stroke="none" font-family="monospace" font-size="12px" font-style="normal" font-weight="normal" text-decoration="undefined" x="504.16986802974236" y="538.2367062138936" text-anchor="start" dominant-baseline="alphabetic" transform="matrix(1 0 0 1 0 0)" fill-opacity="1">nad4l_0</text><rect fill="rgb(255,255,255)" stroke="none" x="164.71931679803922" y="117.29480370942963" width="50.572265625" height="12" transform="matrix(1 0 0 1 0 0)" fill-opacity="0.75"/><text fill="rgb(229,156,4)" stroke="none" font-family="monospace" font-size="12px" font-style="normal" font-weight="normal" text-decoration="undefined" x="164.71931679803922" y="128.29480370942963" text-anchor="start" dominant-baseline="alphabetic" transform="matrix(1 0 0 1 0 0)" fill-opacity="1">nad4l_1</text><rect fill="rgb(255,255,255)" stroke="none" x="585.892758879727" y="370.59685751111635" width="43.34765625" height="12" transform="matrix(1 0 0 1 0 0)" fill-opacity="0.75"/><text fill="rgb(229,156,4)" stroke="none" font-family="monospace" font-size="12px" font-style="normal" font-weight="normal" text-decoration="undefined" x="585.892758879727" y="381.59685751111635" text-anchor="start" dominant-baseline="alphabetic" transform="matrix(1 0 0 1 0 0)" fill-opacity="1">atp8_0</text><rect fill="rgb(255,255,255)" stroke="none" x="64.20681061246782" y="250.57536807183817" width="43.34765625" height="12" transform="matrix(1 0 0 1 0 0)" fill-opacity="0.75"/><text fill="rgb(229,156,4)" stroke="none" font-family="monospace" font-size="12px" font-style="normal" font-weight="normal" text-decoration="undefined" x="64.20681061246782" y="261.57536807183817" text-anchor="start" dominant-baseline="alphabetic" transform="matrix(1 0 0 1 0 0)" fill-opacity="1">atp8_1</text><path fill="rgb(229,156,4)" stroke="none" paint-order="stroke fill markers" d=" M 168.06899886760957 286.7867926609315 L 168.0702510464095 286.7828236382241 L 178.93815645101637 283.05165081924235 L 185.4396105838184 292.26286564274676 L 185.43848381339802 292.2664371593583 Z" fill-opacity="1"/><path fill="rgb(251,188,57)" stroke="none" paint-order="stroke fill markers" d=" M 165.89781324938602 286.10183709862815 L 165.89908110423337 286.0978183876588 L 178.93815645101637 283.05165081924235 L 168.0702510464095 286.7828236382241 L 168.06899886760957 286.7867926609315 Z" fill-opacity="1"/><path fill="rgb(153,104,2)" stroke="none" paint-order="stroke fill markers" d=" M 187.6096694316216 292.95139272166165 L 187.61078052599453 292.9478708933121 L 178.93815645101637 283.05165081924235 L 185.4396105838184 292.26286564274676 L 185.43848381339802 292.2664371593583 Z" fill-opacity="1"/><path fill="rgb(229,156,4)" stroke="none" paint-order="stroke fill markers" d=" M 161.54969912365252 315.2371664586032 A 181.85666666666665 181.85666666666665 0 0 1 165.58968575045333 295.3761607003836 L 176.26099323524647 291.1151496638351 L 183.2074791969317 299.99556165595493 L 183.2074791969317 299.99556165595493 A 163.64333333333335 163.64333333333335 0 0 0 179.57210585401455 317.86744529486975 Z" fill-opacity="1"/><path fill="rgb(251,188,57)" stroke="none" paint-order="stroke fill markers" d=" M 159.29689828235726 314.9083816040699 A 184.13333333333333 184.13333333333333 0 0 1 163.3874615696435 294.7987355809372 L 176.26099323524647 291.1151496638351 L 165.58968575045333 295.3761607003836 L 165.58968575045333 295.3761607003836 A 181.85666666666665 181.85666666666665 0 0 0 161.54969912365252 315.2371664586032 Z" fill-opacity="1"/><path fill="rgb(153,104,2)" stroke="none" paint-order="stroke fill markers" d=" M 181.8249066953098 318.19623014940305 A 161.36666666666667 161.36666666666667 0 0 1 185.40970337774152 300.5729867754013 L 176.26099323524647 291.1151496638351 L 183.2074791969317 299.99556165595493 L 183.2074791969317 299.99556165595493 A 163.64333333333335 163.64333333333335 0 0 0 179.57210585401455 317.86744529486975 Z" fill-opacity="1"/><path fill="rgb(229,156,4)" stroke="none" paint-order="stroke fill markers" d=" M 161.60722272627785 368.15400337394186 A 181.85666666666665 181.85666666666665 0 0 1 160.69659161553355 361.04417375257793 L 169.15090400112808 353.2622960501611 L 178.80443888376172 359.0867830349049 L 178.80443888376172 359.0867830349049 A 163.64333333333335 163.64333333333335 0 0 0 179.62386834505483 365.4845480440077 Z" fill-opacity="1"/><path fill="rgb(251,188,57)" stroke="none" paint-order="stroke fill markers" d=" M 159.3551420239307 368.4876852901836 A 184.13333333333333 184.13333333333333 0 0 1 158.43311070700503 361.288847592287 L 169.15090400112808 353.2622960501611 L 160.69659161553355 361.04417375257793 L 160.69659161553355 361.04417375257793 A 181.85666666666665 181.85666666666665 0 0 0 161.60722272627785 368.15400337394186 Z" fill-opacity="1"/><path fill="rgb(153,104,2)" stroke="none" paint-order="stroke fill markers" d=" M 181.87594904740197 365.1508661277659 A 161.36666666666667 161.36666666666667 0 0 1 181.06791979229024 358.8421091951958 L 169.15090400112808 353.2622960501611 L 178.80443888376172 359.0867830349049 L 178.80443888376172 359.0867830349049 A 163.64333333333335 163.64333333333335 0 0 0 179.62386834505483 365.4845480440077 Z" fill-opacity="1"/><path fill="rgb(229,156,4)" stroke="none" paint-order="stroke fill markers" d=" M 199.1150793723138 454.62993232985957 A 181.85666666666665 181.85666666666665 0 0 1 184.69013520671894 433.60056196692835 L 189.20083968365083 423.03237557519697 L 200.39497787091392 424.3764941005263 L 200.39497787091392 424.3764941005263 A 163.64333333333335 163.64333333333335 0 0 0 213.3752330887879 443.2997281351577 Z" fill-opacity="1"/><path fill="rgb(251,188,57)" stroke="none" paint-order="stroke fill markers" d=" M 197.33256015775456 456.04620785419735 A 184.13333333333333 184.13333333333333 0 0 1 182.72702987369453 434.7535704502286 L 189.20083968365083 423.03237557519697 L 184.69013520671894 433.60056196692835 L 184.69013520671894 433.60056196692835 A 181.85666666666665 181.85666666666665 0 0 0 199.1150793723138 454.62993232985957 Z" fill-opacity="1"/><path fill="rgb(153,104,2)" stroke="none" paint-order="stroke fill markers" d=" M 215.15775230334714 441.88345261082 A 161.36666666666667 161.36666666666667 0 0 1 202.35808320393832 423.22348561722606 L 189.20083968365083 423.03237557519697 L 200.39497787091392 424.3764941005263 L 200.39497787091392 424.3764941005263 A 163.64333333333335 163.64333333333335 0 0 0 213.3752330887879 443.2997281351577 Z" fill-opacity="1"/><path fill="rgb(229,156,4)" stroke="none" paint-order="stroke fill markers" d=" M 521.9860158970383 363.7855396328006 L 521.9855058363883 363.7896701208024 L 511.97660226843914 369.4336818018753 L 503.9094971869019 361.5573120816861 L 503.9099561638892 361.5535952708741 Z" fill-opacity="1"/><path fill="rgb(251,188,57)" stroke="none" paint-order="stroke fill markers" d=" M 524.245523363682 364.0645326780414 L 524.245006917574 364.0687148756919 L 511.97660226843914 369.4336818018753 L 521.9855058363883 363.7896701208024 L 521.9860158970383 363.7855396328006 Z" fill-opacity="1"/><path fill="rgb(153,104,2)" stroke="none" paint-order="stroke fill markers" d=" M 501.65044869724557 361.2746022256333 L 501.6499961057161 361.2782673267966 L 511.97660226843914 369.4336818018753 L 503.9094971869019 361.5573120816861 L 503.9099561638892 361.5535952708741 Z" fill-opacity="1"/><path fill="rgb(229,156,4)" stroke="none" paint-order="stroke fill markers" d=" M 523.2266355637931 334.624162758221 A 181.85666666666665 181.85666666666665 0 0 1 522.8631484308596 354.8886370612211 L 513.1438539178154 361.017938216924 L 504.69924200223966 353.54773648196436 L 504.69924200223966 353.54773648196436 A 163.64333333333335 163.64333333333335 0 0 0 505.0263251229594 335.31279253421826 Z" fill-opacity="1"/><path fill="rgb(251,188,57)" stroke="none" paint-order="stroke fill markers" d=" M 525.5016743688973 334.5380840362214 A 184.13333333333333 184.13333333333333 0 0 1 525.133636734437 355.0562496336282 L 513.1438539178154 361.017938216924 L 522.8631484308596 354.8886370612211 L 522.8631484308596 354.8886370612211 A 181.85666666666665 181.85666666666665 0 0 0 523.2266355637931 334.624162758221 Z" fill-opacity="1"/><path fill="rgb(153,104,2)" stroke="none" paint-order="stroke fill markers" d=" M 502.75128631785515 335.3988712562179 A 161.36666666666667 161.36666666666667 0 0 1 502.42875369866215 353.38012390955726 L 513.1438539178154 361.017938216924 L 504.69924200223966 353.54773648196436 L 504.69924200223966 353.54773648196436 A 163.64333333333335 163.64333333333335 0 0 0 505.0263251229594 335.31279253421826 Z" fill-opacity="1"/><path fill="rgb(229,156,4)" stroke="none" paint-order="stroke fill markers" d=" M 513.5537832901498 282.59887211048255 A 181.85666666666665 181.85666666666665 0 0 1 515.7412822522309 289.42483537990984 L 508.841896502091 298.6134965859483 L 498.29064592277393 294.6402742692214 L 498.29064592277393 294.6402742692214 A 163.64333333333335 163.64333333333335 0 0 0 496.3222296508848 288.4979457910061 Z" fill-opacity="1"/><path fill="rgb(251,188,57)" stroke="none" paint-order="stroke fill markers" d=" M 515.707727495058 281.8614879004171 A 184.13333333333333 184.13333333333333 0 0 1 517.9226117934131 288.77290551874586 L 508.841896502091 298.6134965859483 L 515.7412822522309 289.42483537990984 L 515.7412822522309 289.42483537990984 A 181.85666666666665 181.85666666666665 0 0 0 513.5537832901498 282.59887211048255 Z" fill-opacity="1"/><path fill="rgb(153,104,2)" stroke="none" paint-order="stroke fill markers" d=" M 494.1682854459767 289.23533000107153 A 161.36666666666667 161.36666666666667 0 0 1 496.1093163815917 295.29220413038536 L 508.841896502091 298.6134965859483 L 498.29064592277393 294.6402742692214 L 498.29064592277393 294.6402742692214 A 163.64333333333335 163.64333333333335 0 0 0 496.3222296508848 288.4979457910061 Z" fill-opacity="1"/><path fill="rgb(229,156,4)" stroke="none" paint-order="stroke fill markers" d=" M 460.955655779323 204.3789093047937 A 181.85666666666665 181.85666666666665 0 0 1 478.9619692405991 222.43676376140414 L 476.4468688715057 233.6486899394512 L 465.1948596134086 234.36120100699475 L 465.1948596134086 234.36120100699475 A 163.64333333333335 163.64333333333335 0 0 0 448.99191687912287 218.11187921806982 Z" fill-opacity="1"/><path fill="rgb(251,188,57)" stroke="none" paint-order="stroke fill markers" d=" M 462.45112314184803 202.66228806563416 A 184.13333333333333 184.13333333333333 0 0 1 480.68285794399793 220.9462091057053 L 476.4468688715057 233.6486899394512 L 478.9619692405991 222.43676376140414 L 478.9619692405991 222.43676376140414 A 181.85666666666665 181.85666666666665 0 0 0 460.955655779323 204.3789093047937 Z" fill-opacity="1"/><path fill="rgb(153,104,2)" stroke="none" paint-order="stroke fill markers" d=" M 447.49644951659786 219.82850045722935 A 161.36666666666667 161.36666666666667 0 0 1 463.47397091000977 235.85175566269356 L 476.4468688715057 233.6486899394512 L 465.1948596134086 234.36120100699475 L 465.1948596134086 234.36120100699475 A 163.64333333333335 163.64333333333335 0 0 0 448.99191687912287 218.11187921806982 Z" fill-opacity="1"/><path fill="rgb(229,156,4)" stroke="none" paint-order="stroke fill markers" d=" M 410.65206245461684 206.04018913983097 A 152.09 152.09 0 0 0 366.9356791453915 191.55202793497773 L 358.6541489485734 199.5494142845431 L 363.88966360962496 209.50884559476867 L 363.88966360962496 209.50884559476867 A 133.8766666666667 133.8766666666667 0 0 1 402.370850250176 222.2619965464096 Z" fill-opacity="1"/><path fill="rgb(251,188,57)" stroke="none" paint-order="stroke fill markers" d=" M 411.687213980172 204.01246321400862 A 154.36666666666667 154.36666666666667 0 0 0 367.3164310873623 189.30742572750387 L 358.6541489485734 199.5494142845431 L 366.9356791453915 191.55202793497773 L 366.9356791453915 191.55202793497773 A 152.09 152.09 0 0 1 410.65206245461684 206.04018913983097 Z" fill-opacity="1"/><path fill="rgb(153,104,2)" stroke="none" paint-order="stroke fill markers" d=" M 401.33569872462084 224.28972247223192 A 131.60000000000002 131.60000000000002 0 0 0 363.5089116676541 211.75344780224253 L 358.6541489485734 199.5494142845431 L 363.88966360962496 209.50884559476867 L 363.88966360962496 209.50884559476867 A 133.8766666666667 133.8766666666667 0 0 1 402.370850250176 222.2619965464096 Z" fill-opacity="1"/><path fill="rgb(229,156,4)" stroke="none" paint-order="stroke fill markers" d=" M 438.8862956774064 224.67843728903136 A 152.09 152.09 0 0 0 416.1636083879074 208.99825026628062 L 405.66484606666586 213.72243490990996 L 407.22236841527 224.8658190423352 L 407.22236841527 224.8658190423352 A 133.8766666666667 133.8766666666667 0 0 1 427.22393085873875 238.66824636376194 Z" fill-opacity="1"/><path fill="rgb(251,188,57)" stroke="none" paint-order="stroke fill markers" d=" M 440.34409127973987 222.92971115469004 A 154.36666666666667 154.36666666666667 0 0 0 417.2812633844871 207.0148041692738 L 405.66484606666586 213.72243490990996 L 416.1636083879074 208.99825026628062 L 416.1636083879074 208.99825026628062 A 152.09 152.09 0 0 1 438.8862956774064 224.67843728903136 Z" fill-opacity="1"/><path fill="rgb(153,104,2)" stroke="none" paint-order="stroke fill markers" d=" M 425.76613525640533 240.4169724981033 A 131.60000000000002 131.60000000000002 0 0 0 406.1047134186904 226.84926513934204 L 405.66484606666586 213.72243490990996 L 407.22236841527 224.8658190423352 L 407.22236841527 224.8658190423352 A 133.8766666666667 133.8766666666667 0 0 1 427.22393085873875 238.66824636376194 Z" fill-opacity="1"/><path fill="rgb(229,156,4)" stroke="none" paint-order="stroke fill markers" d=" M 483.13977486983725 286.096549973654 A 152.09 152.09 0 0 0 465.01175343307966 252.751958534928 L 453.4998638916484 252.61657016426875 L 450.2207695691757 263.3798608420083 L 450.2207695691757 263.3798608420083 A 133.8766666666667 133.8766666666667 0 0 1 466.1778941875923 292.7313155936587 Z" fill-opacity="1"/><path fill="rgb(251,188,57)" stroke="none" paint-order="stroke fill markers" d=" M 485.2600099551179 285.26720427115345 A 154.36666666666667 154.36666666666667 0 0 0 466.86062641606765 251.423470746543 L 453.4998638916484 252.61657016426875 L 465.01175343307966 252.751958534928 L 465.01175343307966 252.751958534928 A 152.09 152.09 0 0 1 483.13977486983725 286.096549973654 Z" fill-opacity="1"/><path fill="rgb(153,104,2)" stroke="none" paint-order="stroke fill markers" d=" M 464.05765910231173 293.5606612961593 A 131.60000000000002 131.60000000000002 0 0 0 448.3718965861877 264.70834863039335 L 453.4998638916484 252.61657016426875 L 450.2207695691757 263.3798608420083 L 450.2207695691757 263.3798608420083 A 133.8766666666667 133.8766666666667 0 0 1 466.1778941875923 292.7313155936587 Z" fill-opacity="1"/><path fill="rgb(229,156,4)" stroke="none" paint-order="stroke fill markers" d=" M 472.5327868803323 418.7125434263981 A 152.09 152.09 0 0 0 479.96793239797597 404.41263623016886 L 474.3526062012194 394.362260986973 L 463.38589144366074 396.8786181189268 L 463.38589144366074 396.8786181189268 A 133.8766666666667 133.8766666666667 0 0 1 456.8411317744929 409.46605916747603 Z" fill-opacity="1"/><path fill="rgb(251,188,57)" stroke="none" paint-order="stroke fill markers" d=" M 474.4942437685622 419.86835395876335 A 154.36666666666667 154.36666666666667 0 0 0 482.0406875172654 405.3543884940741 L 474.3526062012194 394.362260986973 L 479.96793239797597 404.41263623016886 L 479.96793239797597 404.41263623016886 A 152.09 152.09 0 0 1 472.5327868803323 418.7125434263981 Z" fill-opacity="1"/><path fill="rgb(153,104,2)" stroke="none" paint-order="stroke fill markers" d=" M 454.87967488626293 408.3102486351107 A 131.60000000000002 131.60000000000002 0 0 0 461.3131363243714 395.93686585502155 L 474.3526062012194 394.362260986973 L 463.38589144366074 396.8786181189268 L 463.38589144366074 396.8786181189268 A 133.8766666666667 133.8766666666667 0 0 1 456.8411317744929 409.46605916747603 Z" fill-opacity="1"/><path fill="rgb(229,156,4)" stroke="none" paint-order="stroke fill markers" d=" M 437.7993575441082 459.2191651201792 A 152.09 152.09 0 0 0 440.0781945357695 457.31756197601464 L 439.26904657066245 445.8333462694203 L 428.2730954728584 443.44798565855035 L 428.2730954728584 443.44798565855035 A 133.8766666666667 133.8766666666667 0 0 1 426.2671575392644 445.1218648765371 Z" fill-opacity="1"/><path fill="rgb(251,188,57)" stroke="none" paint-order="stroke fill markers" d=" M 439.24088254471366 460.98132765063446 A 154.36666666666667 154.36666666666667 0 0 0 441.55383191863336 459.05125901569767 L 439.26904657066245 445.8333462694203 L 440.0781945357695 457.31756197601464 L 440.0781945357695 457.31756197601464 A 152.09 152.09 0 0 1 437.7993575441082 459.2191651201792 Z" fill-opacity="1"/><path fill="rgb(153,104,2)" stroke="none" paint-order="stroke fill markers" d=" M 424.82563253865897 443.3597023460818 A 131.60000000000002 131.60000000000002 0 0 0 426.7974580899945 441.7142886188673 L 439.26904657066245 445.8333462694203 L 428.2730954728584 443.44798565855035 L 428.2730954728584 443.44798565855035 A 133.8766666666667 133.8766666666667 0 0 1 426.2671575392644 445.1218648765371 Z" fill-opacity="1"/><path fill="rgb(229,156,4)" stroke="none" paint-order="stroke fill markers" d=" M 355.7843452788582 492.9177188441114 A 152.09 152.09 0 0 0 404.81791118667945 479.78308003134646 L 407.1663383576625 468.51246245076936 L 397.23535991826344 463.22317582350297 L 397.23535991826344 463.22317582350297 A 133.8766666666667 133.8766666666667 0 0 1 354.07374272765645 474.78489363613755 Z" fill-opacity="1"/><path fill="rgb(251,188,57)" stroke="none" paint-order="stroke fill markers" d=" M 355.9981705977584 495.1843219951081 A 154.36666666666667 154.36666666666667 0 0 0 405.76573009523145 481.85306805732694 L 407.1663383576625 468.51246245076936 L 404.81791118667945 479.78308003134646 L 404.81791118667945 479.78308003134646 A 152.09 152.09 0 0 1 355.7843452788582 492.9177188441114 Z" fill-opacity="1"/><path fill="rgb(153,104,2)" stroke="none" paint-order="stroke fill markers" d=" M 353.85991740875625 472.51829048514077 A 131.60000000000002 131.60000000000002 0 0 0 396.28754100971145 461.1531877975225 L 407.1663383576625 468.51246245076936 L 397.23535991826344 463.22317582350297 L 397.23535991826344 463.22317582350297 A 133.8766666666667 133.8766666666667 0 0 1 354.07374272765645 474.78489363613755 Z" fill-opacity="1"/><path fill="rgb(229,156,4)" stroke="none" paint-order="stroke fill markers" d=" M 340.10776353019196 493.58362757907946 A 152.09 152.09 0 0 0 349.23321594312614 493.39326999961844 L 355.58045424744483 483.788349555741 L 348.3071350718604 475.203495802807 L 348.3071350718604 475.203495802807 A 133.8766666666667 133.8766666666667 0 0 1 340.27448893556664 475.37105736644025 Z" fill-opacity="1"/><path fill="rgb(251,188,57)" stroke="none" paint-order="stroke fill markers" d=" M 340.08692285452014 495.86019885565935 A 154.36666666666667 154.36666666666667 0 0 0 349.34897605203435 495.66699177421987 L 355.58045424744483 483.788349555741 L 349.23321594312614 493.39326999961844 L 349.23321594312614 493.39326999961844 A 152.09 152.09 0 0 1 340.10776353019196 493.58362757907946 Z" fill-opacity="1"/><path fill="rgb(153,104,2)" stroke="none" paint-order="stroke fill markers" d=" M 340.29532961123846 473.0944860898603 A 131.60000000000002 131.60000000000002 0 0 0 348.1913749629522 472.9297740282056 L 355.58045424744483 483.788349555741 L 348.3071350718604 475.203495802807 L 348.3071350718604 475.203495802807 A 133.8766666666667 133.8766666666667 0 0 1 340.27448893556664 475.37105736644025 Z" fill-opacity="1"/><path fill="rgb(229,156,4)" stroke="none" paint-order="stroke fill markers" d=" M 248.88298701179093 462.13770971442517 A 152.09 152.09 0 0 0 289.2386157801037 484.32897401935077 L 298.83557534518513 477.9697053561146 L 295.49710753668455 467.22468239286354 L 295.49710753668455 467.22468239286354 A 133.8766666666667 133.8766666666667 0 0 1 259.974212798443 447.6909030894089 Z" fill-opacity="1"/><path fill="rgb(251,188,57)" stroke="none" paint-order="stroke fill markers" d=" M 247.49658378845942 463.9435605425522 A 154.36666666666667 154.36666666666667 0 0 0 288.4563043105311 486.4670104726617 L 298.83557534518513 477.9697053561146 L 289.2386157801037 484.32897401935077 L 289.2386157801037 484.32897401935077 A 152.09 152.09 0 0 1 248.88298701179093 462.13770971442517 Z" fill-opacity="1"/><path fill="rgb(153,104,2)" stroke="none" paint-order="stroke fill markers" d=" M 261.3606160217745 445.8850522612818 A 131.60000000000002 131.60000000000002 0 0 0 296.27941900625717 465.0866459395527 L 298.83557534518513 477.9697053561146 L 295.49710753668455 467.22468239286354 L 295.49710753668455 467.22468239286354 A 133.8766666666667 133.8766666666667 0 0 1 259.974212798443 447.6909030894089 Z" fill-opacity="1"/><path fill="rgb(229,156,4)" stroke="none" paint-order="stroke fill markers" d=" M 192.15043591948358 370.2415345616709 A 152.09 152.09 0 0 0 203.91708671140566 406.3252271189475 L 215.2126939270108 408.5503537346244 L 220.39314339295117 398.5621692589539 L 220.39314339295117 398.5621692589539 A 133.8766666666667 133.8766666666667 0 0 1 210.03559203616757 366.79963075811224 Z" fill-opacity="1"/><path fill="rgb(251,188,57)" stroke="none" paint-order="stroke fill markers" d=" M 189.9147914048981 370.6717725371157 A 154.36666666666667 154.36666666666667 0 0 0 201.85757962621244 407.2956093514467 L 215.2126939270108 408.5503537346244 L 203.91708671140566 406.3252271189475 L 203.91708671140566 406.3252271189475 A 152.09 152.09 0 0 1 192.15043591948358 370.2415345616709 Z" fill-opacity="1"/><path fill="rgb(153,104,2)" stroke="none" paint-order="stroke fill markers" d=" M 212.2712365507531 366.36939278266743 A 131.60000000000002 131.60000000000002 0 0 0 222.4526504781444 397.59178702645465 L 215.2126939270108 408.5503537346244 L 220.39314339295117 398.5621692589539 L 220.39314339295117 398.5621692589539 A 133.8766666666667 133.8766666666667 0 0 1 210.03559203616757 366.79963075811224 Z" fill-opacity="1"/><path fill="rgb(229,156,4)" stroke="none" paint-order="stroke fill markers" d=" M 226.68038900371755 241.76121601572245 A 152.09 152.09 0 0 0 216.7703988357033 254.47187412453675 L 220.46582737855397 265.37534782376264 L 231.70722441620865 264.89381025409887 L 231.70722441620865 264.89381025409887 A 133.8766666666667 133.8766666666667 0 0 1 240.43045704421303 253.7052999066224 Z" fill-opacity="1"/><path fill="rgb(251,188,57)" stroke="none" paint-order="stroke fill markers" d=" M 224.9616304986556 240.26820552935996 A 154.36666666666667 154.36666666666667 0 0 0 214.90329563814015 253.1691321083415 L 220.46582737855397 265.37534782376264 L 216.7703988357033 254.47187412453675 L 216.7703988357033 254.47187412453675 A 152.09 152.09 0 0 1 226.68038900371755 241.76121601572245 Z" fill-opacity="1"/><path fill="rgb(153,104,2)" stroke="none" paint-order="stroke fill markers" d=" M 242.14921554927497 255.19831039298492 A 131.60000000000002 131.60000000000002 0 0 0 233.5743276137718 266.19655227029415 L 220.46582737855397 265.37534782376264 L 231.70722441620865 264.89381025409887 L 231.70722441620865 264.89381025409887 A 133.8766666666667 133.8766666666667 0 0 1 240.43045704421303 253.7052999066224 Z" fill-opacity="1"/><path fill="rgb(229,156,4)" stroke="none" paint-order="stroke fill markers" d=" M 268.196534841028 208.24096617606978 A 152.09 152.09 0 0 0 265.6100737617494 209.69678609550948 L 264.31878547545523 221.1368256665382 L 274.6981697787087 225.4807026531209 L 274.6981697787087 225.4807026531209 A 133.8766666666667 133.8766666666667 0 0 1 276.9748926911742 224.19922248952352 Z" fill-opacity="1"/><path fill="rgb(251,188,57)" stroke="none" paint-order="stroke fill markers" d=" M 267.0992401097597 206.24618413688805 A 154.36666666666667 154.36666666666667 0 0 0 264.4740617596295 207.72379652580807 L 264.31878547545523 221.1368256665382 L 265.6100737617494 209.69678609550948 L 265.6100737617494 209.69678609550948 A 152.09 152.09 0 0 1 268.196534841028 208.24096617606978 Z" fill-opacity="1"/><path fill="rgb(153,104,2)" stroke="none" paint-order="stroke fill markers" d=" M 278.07218742244254 226.19400452870525 A 131.60000000000002 131.60000000000002 0 0 0 275.83418178082854 227.45369222282233 L 264.31878547545523 221.1368256665382 L 274.6981697787087 225.4807026531209 L 274.6981697787087 225.4807026531209 A 133.8766666666667 133.8766666666667 0 0 1 276.9748926911742 224.19922248952352 Z" fill-opacity="1"/><path fill="rgb(229,156,4)" stroke="none" paint-order="stroke fill markers" d=" M 299.20112206850047 195.41039384769326 A 152.09 152.09 0 0 0 275.4885954502075 204.4822545457573 L 273.36113608297234 215.79666338872346 L 283.3937023925896 220.89063031365748 L 283.3937023925896 220.89063031365748 A 133.8766666666667 133.8766666666667 0 0 1 304.2665672877284 212.90515808852004 Z" fill-opacity="1"/><path fill="rgb(251,188,57)" stroke="none" paint-order="stroke fill markers" d=" M 298.56794141609697 193.22354831758992 A 154.36666666666667 154.36666666666667 0 0 0 274.5004570824098 202.4312075747698 L 273.36113608297234 215.79666338872346 L 275.4885954502075 204.4822545457573 L 275.4885954502075 204.4822545457573 A 152.09 152.09 0 0 1 299.20112206850047 195.41039384769326 Z" fill-opacity="1"/><path fill="rgb(153,104,2)" stroke="none" paint-order="stroke fill markers" d=" M 304.8997479401319 215.09200361862338 A 131.60000000000002 131.60000000000002 0 0 0 284.3818407603874 222.94167728464504 L 273.36113608297234 215.79666338872346 L 283.3937023925896 220.89063031365748 L 283.3937023925896 220.89063031365748 A 133.8766666666667 133.8766666666667 0 0 1 304.2665672877284 212.90515808852004 Z" fill-opacity="1"/><path fill="none" stroke="rgb(235,229,241)" paint-order="fill stroke markers" d=" M 436.66201937438643 167.27871251470629 A 198.51666666666668 198.51666666666668 0 0 1 443.3664086622046 171.11190848328286" stroke-opacity="1" stroke-miterlimit="10" stroke-width="18.21333333333333" stroke-dasharray=""/><path fill="none" stroke="rgb(255,255,255)" paint-order="fill stroke markers" d=" M 441.5731177968056 158.28754255272074 A 208.76166666666668 208.76166666666668 0 0 1 448.62350558141014 162.31856116942794" stroke-opacity="1" stroke-miterlimit="10" stroke-width="2.276666666666667" stroke-dasharray=""/><path fill="none" stroke="rgb(196,179,214)" paint-order="fill stroke markers" d=" M 431.7509209519672 176.26988247669186 A 188.27166666666668 188.27166666666668 0 0 1 438.10931174299907 179.90525579713778" stroke-opacity="1" stroke-miterlimit="10" stroke-width="2.276666666666667" stroke-dasharray=""/><path fill="none" stroke="rgb(235,229,241)" paint-order="fill stroke markers" d=" M 146.28667526316565 305.4358240128004 A 198.51666666666668 198.51666666666668 0 0 1 151.44321698159678 284.16513998325235" stroke-opacity="1" stroke-miterlimit="10" stroke-width="18.21333333333333" stroke-dasharray=""/><path fill="none" stroke="rgb(255,255,255)" paint-order="fill stroke markers" d=" M 136.2121533325358 303.5746327627516 A 208.76166666666668 208.76166666666668 0 0 1 141.6348126056911 281.2062164292019" stroke-opacity="1" stroke-miterlimit="10" stroke-width="2.276666666666667" stroke-dasharray=""/><path fill="none" stroke="rgb(196,179,214)" paint-order="fill stroke markers" d=" M 156.36119719379548 307.29701526284924 A 188.27166666666668 188.27166666666668 0 0 1 161.25162135750244 287.1240635373028" stroke-opacity="1" stroke-miterlimit="10" stroke-width="2.276666666666667" stroke-dasharray=""/><path fill="none" stroke="rgb(235,229,241)" paint-order="fill stroke markers" d=" M 540.016666341756 341.4886421689806 A 198.51666666666668 198.51666666666668 0 0 1 538.8113884380911 363.3422282992643" stroke-opacity="1" stroke-miterlimit="10" stroke-width="18.21333333333333" stroke-dasharray=""/><path fill="none" stroke="rgb(255,255,255)" paint-order="fill stroke markers" d=" M 550.2616663249883 341.48805601679123 A 208.76166666666668 208.76166666666668 0 0 1 548.9941867315085 364.469456721358" stroke-opacity="1" stroke-miterlimit="10" stroke-width="2.276666666666667" stroke-dasharray=""/><path fill="none" stroke="rgb(196,179,214)" paint-order="fill stroke markers" d=" M 529.771666358524 341.48922832116995 A 188.27166666666668 188.27166666666668 0 0 1 528.6285901446737 362.2149998771706" stroke-opacity="1" stroke-miterlimit="10" stroke-width="2.276666666666667" stroke-dasharray=""/><path fill="none" stroke="rgb(235,229,241)" paint-order="fill stroke markers" d=" M 166.16393488339267 434.5920577378612 A 198.51666666666668 198.51666666666668 0 0 1 147.48905743348223 383.55497721906175" stroke-opacity="1" stroke-miterlimit="10" stroke-width="18.21333333333333" stroke-dasharray=""/><path fill="none" stroke="rgb(255,255,255)" paint-order="fill stroke markers" d=" M 157.11523374770476 439.3963300820358 A 208.76166666666668 208.76166666666668 0 0 1 137.47658775036257 385.7253402865252" stroke-opacity="1" stroke-miterlimit="10" stroke-width="2.276666666666667" stroke-dasharray=""/><path fill="none" stroke="rgb(196,179,214)" paint-order="fill stroke markers" d=" M 175.21263601908058 429.78778539368665 A 188.27166666666668 188.27166666666668 0 0 1 157.50152711660192 381.38461415159827" stroke-opacity="1" stroke-miterlimit="10" stroke-width="2.276666666666667" stroke-dasharray=""/><path fill="none" stroke="rgb(235,229,241)" paint-order="fill stroke markers" d=" M 496.9995196192358 218.09511216069535 A 198.51666666666668 198.51666666666668 0 0 1 524.6381393114964 264.88871575304734" stroke-opacity="1" stroke-miterlimit="10" stroke-width="18.21333333333333" stroke-dasharray=""/><path fill="none" stroke="rgb(255,255,255)" paint-order="fill stroke markers" d=" M 505.02450112456233 211.72646263044427 A 208.76166666666668 208.76166666666668 0 0 1 534.0894880005046 260.9349791711817" stroke-opacity="1" stroke-miterlimit="10" stroke-width="2.276666666666667" stroke-dasharray=""/><path fill="none" stroke="rgb(196,179,214)" paint-order="fill stroke markers" d=" M 488.97453811390926 224.4637616909464 A 188.27166666666668 188.27166666666668 0 0 1 515.1867906224882 268.842452334913" stroke-opacity="1" stroke-miterlimit="10" stroke-width="2.276666666666667" stroke-dasharray=""/><path fill="none" stroke="rgb(235,229,241)" paint-order="fill stroke markers" d=" M 248.85967175585296 165.9248408024041 A 198.51666666666668 198.51666666666668 0 0 1 283.7629377218705 151.5650148499865" stroke-opacity="1" stroke-miterlimit="10" stroke-width="18.21333333333333" stroke-dasharray=""/><path fill="none" stroke="rgb(255,255,255)" paint-order="fill stroke markers" d=" M 244.07871215786142 156.86380055735648 A 208.76166666666668 208.76166666666668 0 0 1 280.78325741103464 141.76289618894097" stroke-opacity="1" stroke-miterlimit="10" stroke-width="2.276666666666667" stroke-dasharray=""/><path fill="none" stroke="rgb(196,179,214)" paint-order="fill stroke markers" d=" M 253.6406313538445 174.98588104745173 A 188.27166666666668 188.27166666666668 0 0 1 286.7426180327064 161.36713351103202" stroke-opacity="1" stroke-miterlimit="10" stroke-width="2.276666666666667" stroke-dasharray=""/><path fill="none" stroke="rgb(235,229,241)" paint-order="fill stroke markers" d=" M 464.50412913194145 497.3167229822817 A 198.51666666666668 198.51666666666668 0 0 1 432.7915530642946 517.7802294176903" stroke-opacity="1" stroke-miterlimit="10" stroke-width="18.21333333333333" stroke-dasharray=""/><path fill="none" stroke="rgb(255,255,255)" paint-order="fill stroke markers" d=" M 470.85209640399285 505.3580746418576 A 208.76166666666668 208.76166666666668 0 0 1 437.5029053998351 526.8776567557018" stroke-opacity="1" stroke-miterlimit="10" stroke-width="2.276666666666667" stroke-dasharray=""/><path fill="none" stroke="rgb(196,179,214)" paint-order="fill stroke markers" d=" M 458.15616185989006 489.27537132270584 A 188.27166666666668 188.27166666666668 0 0 1 428.0802007287542 508.6828020796788" stroke-opacity="1" stroke-miterlimit="10" stroke-width="2.276666666666667" stroke-dasharray=""/><path fill="none" stroke="rgb(235,229,241)" paint-order="fill stroke markers" d=" M 413.12775702764475 526.6440827237888 A 198.51666666666668 198.51666666666668 0 0 1 367.4125629805234 538.3182055202842" stroke-opacity="1" stroke-miterlimit="10" stroke-width="18.21333333333333" stroke-dasharray=""/><path fill="none" stroke="rgb(255,255,255)" paint-order="fill stroke markers" d=" M 416.82430494510703 536.1989536540476 A 208.76166666666668 208.76166666666668 0 0 1 368.749852247934 548.475551749259" stroke-opacity="1" stroke-miterlimit="10" stroke-width="2.276666666666667" stroke-dasharray=""/><path fill="none" stroke="rgb(196,179,214)" paint-order="fill stroke markers" d=" M 409.43120911018246 517.0892117935299 A 188.27166666666668 188.27166666666668 0 0 1 366.0752737131128 528.1608592913095" stroke-opacity="1" stroke-miterlimit="10" stroke-width="2.276666666666667" stroke-dasharray=""/><path fill="none" stroke="rgb(235,229,241)" paint-order="fill stroke markers" d=" M 173.96721540615633 235.00289660898176 A 198.51666666666668 198.51666666666668 0 0 1 191.63080121674443 211.31516908445332" stroke-opacity="1" stroke-miterlimit="10" stroke-width="18.21333333333333" stroke-dasharray=""/><path fill="none" stroke="rgb(255,255,255)" paint-order="fill stroke markers" d=" M 165.3212240796652 229.5068199189928 A 208.76166666666668 208.76166666666668 0 0 1 183.89638794396572 204.59662189582207" stroke-opacity="1" stroke-miterlimit="10" stroke-width="2.276666666666667" stroke-dasharray=""/><path fill="none" stroke="rgb(196,179,214)" paint-order="fill stroke markers" d=" M 182.61320673264743 240.49897329897078 A 188.27166666666668 188.27166666666668 0 0 1 199.36521448952314 218.03371627308454" stroke-opacity="1" stroke-miterlimit="10" stroke-width="2.276666666666667" stroke-dasharray=""/><path fill="none" stroke="rgb(235,229,241)" paint-order="fill stroke markers" d=" M 525.5964110684367 415.7790574534008 A 198.51666666666668 198.51666666666668 0 0 1 512.5315739070768 442.2822785578526" stroke-opacity="1" stroke-miterlimit="10" stroke-width="18.21333333333333" stroke-dasharray=""/><path fill="none" stroke="rgb(255,255,255)" paint-order="fill stroke markers" d=" M 535.0972140139298 419.61243304038805 A 208.76166666666668 208.76166666666668 0 0 1 521.3581299041115 447.4834259534963" stroke-opacity="1" stroke-miterlimit="10" stroke-width="2.276666666666667" stroke-dasharray=""/><path fill="none" stroke="rgb(196,179,214)" paint-order="fill stroke markers" d=" M 516.0956081229436 411.9456818664135 A 188.27166666666668 188.27166666666668 0 0 1 503.7050179100421 437.08113116220886" stroke-opacity="1" stroke-miterlimit="10" stroke-width="2.276666666666667" stroke-dasharray=""/><path fill="none" stroke="rgb(235,229,241)" paint-order="fill stroke markers" d=" M 198.5930287479903 203.7086196018716 A 198.51666666666668 198.51666666666668 0 0 1 233.96019454743217 174.634613572292" stroke-opacity="1" stroke-miterlimit="10" stroke-width="18.21333333333333" stroke-dasharray=""/><path fill="none" stroke="rgb(255,255,255)" paint-order="fill stroke markers" d=" M 191.217920425548 196.59751545186492 A 208.76166666666668 208.76166666666668 0 0 1 228.41030634226942 166.02306516853815" stroke-opacity="1" stroke-miterlimit="10" stroke-width="2.276666666666667" stroke-dasharray=""/><path fill="none" stroke="rgb(196,179,214)" paint-order="fill stroke markers" d=" M 205.96813707043262 210.81972375187829 A 188.27166666666668 188.27166666666668 0 0 1 239.5100827525949 183.24616197604587" stroke-opacity="1" stroke-miterlimit="10" stroke-width="2.276666666666667" stroke-dasharray=""/><path fill="none" stroke="rgb(235,229,241)" paint-order="fill stroke markers" d=" M 507.06756758795996 451.02738245503167 A 198.51666666666668 198.51666666666668 0 0 1 477.5727430829389 486.0443721987437" stroke-opacity="1" stroke-miterlimit="10" stroke-width="18.21333333333333" stroke-dasharray=""/><path fill="none" stroke="rgb(255,255,255)" paint-order="fill stroke markers" d=" M 515.6121384717076 456.6798450522198 A 208.76166666666668 208.76166666666668 0 0 1 484.5951522150926 493.50398311223273" stroke-opacity="1" stroke-miterlimit="10" stroke-width="2.276666666666667" stroke-dasharray=""/><path fill="none" stroke="rgb(196,179,214)" paint-order="fill stroke markers" d=" M 498.52299670421223 445.3749198578435 A 188.27166666666668 188.27166666666668 0 0 1 470.5503339507852 478.5847612852547" stroke-opacity="1" stroke-miterlimit="10" stroke-width="2.276666666666667" stroke-dasharray=""/><path fill="none" stroke="rgb(235,229,241)" paint-order="fill stroke markers" d=" M 186.922628165875 466.0580308984495 A 198.51666666666668 198.51666666666668 0 0 1 167.3059423985041 436.71185451807554" stroke-opacity="1" stroke-miterlimit="10" stroke-width="18.21333333333333" stroke-dasharray=""/><path fill="none" stroke="rgb(255,255,255)" paint-order="fill stroke markers" d=" M 178.94523663985396 472.48619155610015 A 208.76166666666668 208.76166666666668 0 0 1 158.31617770975927 441.625524820507" stroke-opacity="1" stroke-miterlimit="10" stroke-width="2.276666666666667" stroke-dasharray=""/><path fill="none" stroke="rgb(196,179,214)" paint-order="fill stroke markers" d=" M 194.90001969189603 459.6298702407989 A 188.27166666666668 188.27166666666668 0 0 1 176.29570708724893 431.7981842156441" stroke-opacity="1" stroke-miterlimit="10" stroke-width="2.276666666666667" stroke-dasharray=""/><path fill="none" stroke="rgb(235,229,241)" paint-order="fill stroke markers" d=" M 470.86833068269993 190.92542724345506 A 198.51666666666668 198.51666666666668 0 0 1 495.491308082809 216.2181418584883" stroke-opacity="1" stroke-miterlimit="10" stroke-width="18.21333333333333" stroke-dasharray=""/><path fill="none" stroke="rgb(255,255,255)" paint-order="fill stroke markers" d=" M 477.5447401252871 183.1546112016913 A 208.76166666666668 208.76166666666668 0 0 1 503.438454172852 209.75262609998043" stroke-opacity="1" stroke-miterlimit="10" stroke-width="2.276666666666667" stroke-dasharray=""/><path fill="none" stroke="rgb(196,179,214)" paint-order="fill stroke markers" d=" M 464.1919212401128 198.69624328521883 A 188.27166666666668 188.27166666666668 0 0 1 487.5441619927659 222.6836576169962" stroke-opacity="1" stroke-miterlimit="10" stroke-width="2.276666666666667" stroke-dasharray=""/><path fill="none" stroke="rgb(235,229,241)" paint-order="fill stroke markers" d=" M 350.17461991174446 539.8270478624416 A 198.51666666666668 198.51666666666668 0 0 1 346.76941461155167 539.9467188292515" stroke-opacity="1" stroke-miterlimit="10" stroke-width="18.21333333333333" stroke-dasharray=""/><path fill="none" stroke="rgb(255,255,255)" paint-order="fill stroke markers" d=" M 350.6222975928585 550.0622620611691 A 208.76166666666668 208.76166666666668 0 0 1 347.0413572831763 550.1881089782181" stroke-opacity="1" stroke-miterlimit="10" stroke-width="2.276666666666667" stroke-dasharray=""/><path fill="none" stroke="rgb(196,179,214)" paint-order="fill stroke markers" d=" M 349.7269422306304 529.5918336637142 A 188.27166666666668 188.27166666666668 0 0 1 346.49747193992704 529.705328680285" stroke-opacity="1" stroke-miterlimit="10" stroke-width="2.276666666666667" stroke-dasharray=""/><path fill="none" stroke="rgb(222,206,229)" paint-order="fill stroke markers" d=" M 282.0483589240058 530.9053043550143 A 198.51666666666668 198.51666666666668 0 0 1 221.58619299193185 499.7072875479389" stroke-opacity="1" stroke-miterlimit="10" stroke-width="18.21333333333333" stroke-dasharray=""/><path fill="none" stroke="rgb(255,255,255)" paint-order="fill stroke markers" d=" M 278.98019304629497 540.6800873780205 A 208.76166666666668 208.76166666666668 0 0 1 215.39771031475448 507.87201088399115" stroke-opacity="1" stroke-miterlimit="10" stroke-width="2.276666666666667" stroke-dasharray=""/><path fill="none" stroke="rgb(188,156,202)" paint-order="fill stroke markers" d=" M 285.11652480171665 521.1305213320081 A 188.27166666666668 188.27166666666668 0 0 1 227.7746756691092 491.5425642118867" stroke-opacity="1" stroke-miterlimit="10" stroke-width="2.276666666666667" stroke-dasharray=""/><path fill="none" stroke="rgb(222,206,229)" paint-order="fill stroke markers" d=" M 365.5421534979107 144.44457175802705 A 198.51666666666668 198.51666666666668 0 0 1 430.6670374049139 164.1356676643381" stroke-opacity="1" stroke-miterlimit="10" stroke-width="18.21333333333333" stroke-dasharray=""/><path fill="none" stroke="rgb(255,255,255)" paint-order="fill stroke markers" d=" M 366.78291512625134 134.27498299634954 A 208.76166666666668 208.76166666666668 0 0 1 435.2687482514256 154.98229220579293" stroke-opacity="1" stroke-miterlimit="10" stroke-width="2.276666666666667" stroke-dasharray=""/><path fill="none" stroke="rgb(188,156,202)" paint-order="fill stroke markers" d=" M 364.30139186957 154.61416051970457 A 188.27166666666668 188.27166666666668 0 0 1 426.06532655840226 173.28904312288324" stroke-opacity="1" stroke-miterlimit="10" stroke-width="2.276666666666667" stroke-dasharray=""/><rect fill="rgb(255,255,255)" stroke="none" x="499.208984375" y="0" width="183.791015625" height="70" transform="matrix(1 0 0 1 0 0)" fill-opacity="0.75"/><rect fill="rgb(235,229,241)" stroke="none" x="506.208984375" y="7" width="14" height="14" transform="matrix(1 0 0 1 0 0)" fill-opacity="1"/><text fill="rgb(0,0,0)" stroke="none" font-family="sans-serif" font-size="14px" font-style="normal" font-weight="normal" text-decoration="undefined" x="523.708984375" y="20" text-anchor="start" dominant-baseline="alphabetic" transform="matrix(1 0 0 1 0 0)" fill-opacity="1">BLAST &gt;= 0% Identical</text><rect fill="rgb(222,206,229)" stroke="none" x="506.208984375" y="28" width="14" height="14" transform="matrix(1 0 0 1 0 0)" fill-opacity="1"/><text fill="rgb(0,0,0)" stroke="none" font-family="sans-serif" font-size="14px" font-style="normal" font-weight="normal" text-decoration="undefined" x="523.708984375" y="41" text-anchor="start" dominant-baseline="alphabetic" transform="matrix(1 0 0 1 0 0)" fill-opacity="1">BLAST &gt;= 82% Identical</text><rect fill="rgb(211,179,215)" stroke="none" x="506.208984375" y="49" width="14" height="14" transform="matrix(1 0 0 1 0 0)" fill-opacity="1"/><text fill="rgb(0,0,0)" stroke="none" font-family="sans-serif" font-size="14px" font-style="normal" font-weight="normal" text-decoration="undefined" x="523.708984375" y="62" text-anchor="start" dominant-baseline="alphabetic" transform="matrix(1 0 0 1 0 0)" fill-opacity="1">BLAST &gt;= 84% Identical</text><rect fill="rgb(255,255,255)" stroke="none" x="0" y="587" width="184.072265625" height="96" transform="matrix(1 0 0 1 0 0)" fill-opacity="1"/><text fill="rgb(0,0,0)" stroke="none" font-family="sans-serif" font-size="12px" font-style="normal" font-weight="normal" text-decoration="undefined" x="6" y="605" text-anchor="start" dominant-baseline="alphabetic" transform="matrix(1 0 0 1 0 0)" fill-opacity="1">Starting from the outermost ring:</text><text fill="rgb(0,0,0)" stroke="none" font-family="sans-serif" font-size="12px" font-style="normal" font-weight="normal" text-decoration="undefined" x="6" y="623" text-anchor="start" dominant-baseline="alphabetic" transform="matrix(1 0 0 1 0 0)" fill-opacity="1">Ring 1: monarcha cartusiana </text><text fill="rgb(0,0,0)" stroke="none" font-family="sans-serif" font-size="12px" font-style="normal" font-weight="normal" text-decoration="undefined" x="6" y="641" text-anchor="start" dominant-baseline="alphabetic" transform="matrix(1 0 0 1 0 0)" fill-opacity="1">Ring 2: Mitos Annotation (+)</text><text fill="rgb(0,0,0)" stroke="none" font-family="sans-serif" font-size="12px" font-style="normal" font-weight="normal" text-decoration="undefined" x="6" y="659" text-anchor="start" dominant-baseline="alphabetic" transform="matrix(1 0 0 1 0 0)" fill-opacity="1">Backbone (Contigs)</text><text fill="rgb(0,0,0)" stroke="none" font-family="sans-serif" font-size="12px" font-style="normal" font-weight="normal" text-decoration="undefined" x="6" y="677" text-anchor="start" dominant-baseline="alphabetic" transform="matrix(1 0 0 1 0 0)" fill-opacity="1">Ring 4: Mitos Annotation (-)</text></g></svg>